<svg xmlns="http://www.w3.org/2000/svg" class="viz" viewBox="0 0 720 212" width="720" height="212" role="img" aria-label="Per-class F1 · sand032-s6-sorter1000">

<style>
  .viz { font-family: system-ui, -apple-system, "Segoe UI", sans-serif;
    --surface:#fcfcfb; --ink:#0b0b0b; --ink2:#52514e; --muted:#898781;
    --grid:#e1e0d9; --axis:#c3c2b7; --s1:#2a78d6; --s2:#eb6834; --deemph:#c3c2b7;
    --good:#0ca30c; --critical:#d03b3b; }
  @media (prefers-color-scheme: dark) {
    .viz { --surface:#1a1a19; --ink:#ffffff; --ink2:#c3c2b7; --muted:#898781;
      --grid:#2c2c2a; --axis:#383835; --s1:#3987e5; --s2:#d95926; --deemph:#52514e; }
  }
  .viz .bg { fill: var(--surface); }
  .viz .title { fill: var(--ink); font-size: 15px; font-weight: 600; }
  .viz .sub { fill: var(--ink2); font-size: 12px; }
  .viz .lbl { fill: var(--ink2); font-size: 12px; }
  .viz .val { fill: var(--ink); font-size: 12px; font-variant-numeric: tabular-nums;
    paint-order: stroke; stroke: var(--surface); stroke-width: 4px; stroke-linejoin: round; }
  .viz .reflbl { paint-order: stroke; stroke: var(--surface); stroke-width: 3px; }
  .viz .tick { fill: var(--muted); font-size: 11px; font-variant-numeric: tabular-nums; }
  .viz .grid { stroke: var(--grid); stroke-width: 1; }
  .viz .axis { stroke: var(--axis); stroke-width: 1; }
  .viz .ref { stroke: var(--ink2); stroke-width: 1; }
  .viz .reflbl { fill: var(--ink2); font-size: 11px; }
  .viz .s1 { fill: var(--s1); } .viz .s2 { fill: var(--s2); }
  .viz .ln1 { stroke: var(--s1); } .viz .ln2 { stroke: var(--s2); }
  .viz .deemph { fill: var(--deemph); }
  .viz .conn { stroke: var(--axis); stroke-width: 2; }
  .viz .ring { stroke: var(--surface); stroke-width: 2; }
</style>

<rect class="bg" width="720" height="212" rx="8"/>
<text class="title" x="16" y="24">Per-class F1 · sand032-s6-sorter1000</text>
<text class="sub" x="16" y="42">isolated sorter · 457 docs · accuracy 0.895 (0–1, higher is better)</text>
<line class="grid" x1="230.0" y1="54" x2="230.0" y2="178"/>
<text class="tick" x="230.0" y="194" text-anchor="middle">0</text>
<line class="grid" x1="335.0" y1="54" x2="335.0" y2="178"/>
<text class="tick" x="335.0" y="194" text-anchor="middle">0.25</text>
<line class="grid" x1="440.0" y1="54" x2="440.0" y2="178"/>
<text class="tick" x="440.0" y="194" text-anchor="middle">0.5</text>
<line class="grid" x1="545.0" y1="54" x2="545.0" y2="178"/>
<text class="tick" x="545.0" y="194" text-anchor="middle">0.75</text>
<line class="grid" x1="650.0" y1="54" x2="650.0" y2="178"/>
<text class="tick" x="650.0" y="194" text-anchor="middle">1</text>
<line class="axis" x1="230" y1="54" x2="230" y2="178"/>
<text class="lbl" x="222" y="74.0" text-anchor="end">insurance_claim (n=81)</text>
<path class="s1" d="M230.0,63.0 H643.4 Q647.4,63.0 647.4,67.0 V73.0 Q647.4,77.0 643.4,77.0 H230.0 Z"><title>insurance_claim (n=81): 0.994 — P 0.988 · R 1.000</title></path>
<text class="val" x="653.4" y="74.0">0.994</text>
<text class="lbl" x="222" y="98.0" text-anchor="end">correspondence (n=41)</text>
<path class="s1" d="M230.0,87.0 H635.5 Q639.5,87.0 639.5,91.0 V97.0 Q639.5,101.0 635.5,101.0 H230.0 Z"><title>correspondence (n=41): 0.975 — P 1.000 · R 0.951</title></path>
<text class="val" x="645.5" y="98.0">0.975</text>
<text class="lbl" x="222" y="122.0" text-anchor="end">contract (n=181)</text>
<path class="s1" d="M230.0,111.0 H597.5 Q601.5,111.0 601.5,115.0 V121.0 Q601.5,125.0 597.5,125.0 H230.0 Z"><title>contract (n=181): 0.884 — P 0.796 · R 0.994</title></path>
<text class="val" x="607.5" y="122.0">0.884</text>
<text class="lbl" x="222" y="146.0" text-anchor="end">corporate_record (n=136)</text>
<path class="s1" d="M230.0,135.0 H582.5 Q586.5,135.0 586.5,139.0 V145.0 Q586.5,149.0 582.5,149.0 H230.0 Z"><title>corporate_record (n=136): 0.849 — P 0.990 · R 0.743</title></path>
<text class="val" x="592.5" y="146.0">0.849</text>
<text class="lbl" x="222" y="170.0" text-anchor="end">merger_agreement (n=18)</text>
<path class="s1" d="M230.0,159.0 H484.5 Q488.5,159.0 488.5,163.0 V169.0 Q488.5,173.0 484.5,173.0 H230.0 Z"><title>merger_agreement (n=18): 0.615 — P 1.000 · R 0.444</title></path>
<text class="val" x="494.5" y="170.0">0.615</text>
</svg>