<svg xmlns="http://www.w3.org/2000/svg" class="viz" viewBox="0 0 752 308" width="752" height="308" role="img" aria-label="Mean overall extraction score by subclass · sand032-s10-corporate75-v2">

<style>
  .viz { font-family: system-ui, -apple-system, "Segoe UI", sans-serif;
    --surface:#fcfcfb; --ink:#0b0b0b; --ink2:#52514e; --muted:#898781;
    --grid:#e1e0d9; --axis:#c3c2b7; --s1:#2a78d6; --s2:#eb6834; --deemph:#c3c2b7;
    --good:#0ca30c; --critical:#d03b3b; }
  @media (prefers-color-scheme: dark) {
    .viz { --surface:#1a1a19; --ink:#ffffff; --ink2:#c3c2b7; --muted:#898781;
      --grid:#2c2c2a; --axis:#383835; --s1:#3987e5; --s2:#d95926; --deemph:#52514e; }
  }
  .viz .bg { fill: var(--surface); }
  .viz .title { fill: var(--ink); font-size: 15px; font-weight: 600; }
  .viz .sub { fill: var(--ink2); font-size: 12px; }
  .viz .lbl { fill: var(--ink2); font-size: 12px; }
  .viz .val { fill: var(--ink); font-size: 12px; font-variant-numeric: tabular-nums;
    paint-order: stroke; stroke: var(--surface); stroke-width: 4px; stroke-linejoin: round; }
  .viz .reflbl { paint-order: stroke; stroke: var(--surface); stroke-width: 3px; }
  .viz .tick { fill: var(--muted); font-size: 11px; font-variant-numeric: tabular-nums; }
  .viz .grid { stroke: var(--grid); stroke-width: 1; }
  .viz .axis { stroke: var(--axis); stroke-width: 1; }
  .viz .ref { stroke: var(--ink2); stroke-width: 1; }
  .viz .reflbl { fill: var(--ink2); font-size: 11px; }
  .viz .s1 { fill: var(--s1); } .viz .s2 { fill: var(--s2); }
  .viz .ln1 { stroke: var(--s1); } .viz .ln2 { stroke: var(--s2); }
  .viz .deemph { fill: var(--deemph); }
  .viz .conn { stroke: var(--axis); stroke-width: 2; }
  .viz .ring { stroke: var(--surface); stroke-width: 2; }
</style>

<rect class="bg" width="752" height="308" rx="8"/>
<text class="title" x="16" y="24">Mean overall extraction score by subclass · sand032-s10-corporate75-v2</text>
<text class="sub" x="16" y="42">overall mean 0.4689 across 75 docs (0–1, higher is better)</text>
<line class="grid" x1="222.0" y1="54" x2="222.0" y2="274"/>
<text class="tick" x="222.0" y="290" text-anchor="middle">0</text>
<line class="grid" x1="337.0" y1="54" x2="337.0" y2="274"/>
<text class="tick" x="337.0" y="290" text-anchor="middle">0.2</text>
<line class="grid" x1="452.0" y1="54" x2="452.0" y2="274"/>
<text class="tick" x="452.0" y="290" text-anchor="middle">0.4</text>
<line class="grid" x1="567.0" y1="54" x2="567.0" y2="274"/>
<text class="tick" x="567.0" y="290" text-anchor="middle">0.6</text>
<line class="grid" x1="682.0" y1="54" x2="682.0" y2="274"/>
<text class="tick" x="682.0" y="290" text-anchor="middle">0.8</text>
<line class="axis" x1="222" y1="54" x2="222" y2="274"/>
<text class="lbl" x="214" y="74.0" text-anchor="end">articles_of_incorporation (n=9)</text>
<path class="s1" d="M222.0,63.0 H669.4 Q673.4,63.0 673.4,67.0 V73.0 Q673.4,77.0 669.4,77.0 H222.0 Z"><title>articles_of_incorporation (n=9): 0.785</title></path>
<text class="val" x="679.4" y="74.0">0.785</text>
<text class="lbl" x="214" y="98.0" text-anchor="end">bylaws (n=6)</text>
<path class="s1" d="M222.0,87.0 H601.0 Q605.0,87.0 605.0,91.0 V97.0 Q605.0,101.0 601.0,101.0 H222.0 Z"><title>bylaws (n=6): 0.666</title></path>
<text class="val" x="611.0" y="98.0">0.666</text>
<text class="lbl" x="214" y="122.0" text-anchor="end">powers_of_attorney (n=3)</text>
<path class="s1" d="M222.0,111.0 H589.5 Q593.5,111.0 593.5,115.0 V121.0 Q593.5,125.0 589.5,125.0 H222.0 Z"><title>powers_of_attorney (n=3): 0.646</title></path>
<text class="val" x="599.5" y="122.0">0.646</text>
<text class="lbl" x="214" y="146.0" text-anchor="end">charter_amendment (n=12)</text>
<path class="s1" d="M222.0,135.0 H514.1 Q518.1,135.0 518.1,139.0 V145.0 Q518.1,149.0 514.1,149.0 H222.0 Z"><title>charter_amendment (n=12): 0.515</title></path>
<text class="val" x="524.1" y="146.0">0.515</text>
<text class="lbl" x="214" y="170.0" text-anchor="end">rights_instrument (n=9)</text>
<path class="s1" d="M222.0,159.0 H504.9 Q508.9,159.0 508.9,163.0 V169.0 Q508.9,173.0 504.9,173.0 H222.0 Z"><title>rights_instrument (n=9): 0.499</title></path>
<text class="val" x="514.9" y="170.0">0.499</text>
<text class="lbl" x="214" y="194.0" text-anchor="end">indenture (n=11)</text>
<path class="s1" d="M222.0,183.0 H491.7 Q495.7,183.0 495.7,187.0 V193.0 Q495.7,197.0 491.7,197.0 H222.0 Z"><title>indenture (n=11): 0.476</title></path>
<text class="val" x="501.7" y="194.0">0.476</text>
<text class="lbl" x="214" y="218.0" text-anchor="end">subsidiary_list (n=8)</text>
<path class="s1" d="M222.0,207.0 H450.9 Q454.9,207.0 454.9,211.0 V217.0 Q454.9,221.0 450.9,221.0 H222.0 Z"><title>subsidiary_list (n=8): 0.405</title></path>
<text class="val" x="460.9" y="218.0">0.405</text>
<text class="lbl" x="214" y="242.0" text-anchor="end">officer_certificate (n=9)</text>
<path class="s1" d="M222.0,231.0 H342.8 Q346.8,231.0 346.8,235.0 V241.0 Q346.8,245.0 342.8,245.0 H222.0 Z"><title>officer_certificate (n=9): 0.217</title></path>
<text class="val" x="352.8" y="242.0">0.217</text>
<text class="lbl" x="214" y="266.0" text-anchor="end">board_resolution (n=8)</text>
<path class="s1" d="M222.0,255.0 H295.6 Q299.6,255.0 299.6,259.0 V265.0 Q299.6,269.0 295.6,269.0 H222.0 Z"><title>board_resolution (n=8): 0.135</title></path>
<text class="val" x="305.6" y="266.0">0.135</text>
</svg>