<svg xmlns="http://www.w3.org/2000/svg" class="viz" viewBox="0 0 720 1292" width="720" height="1292" role="img" aria-label="Per-document latency · sand032-s3-corporate50">

<style>
  .viz { font-family: system-ui, -apple-system, "Segoe UI", sans-serif;
    --surface:#fcfcfb; --ink:#0b0b0b; --ink2:#52514e; --muted:#898781;
    --grid:#e1e0d9; --axis:#c3c2b7; --s1:#2a78d6; --s2:#eb6834; --deemph:#c3c2b7;
    --good:#0ca30c; --critical:#d03b3b; }
  @media (prefers-color-scheme: dark) {
    .viz { --surface:#1a1a19; --ink:#ffffff; --ink2:#c3c2b7; --muted:#898781;
      --grid:#2c2c2a; --axis:#383835; --s1:#3987e5; --s2:#d95926; --deemph:#52514e; }
  }
  .viz .bg { fill: var(--surface); }
  .viz .title { fill: var(--ink); font-size: 15px; font-weight: 600; }
  .viz .sub { fill: var(--ink2); font-size: 12px; }
  .viz .lbl { fill: var(--ink2); font-size: 12px; }
  .viz .val { fill: var(--ink); font-size: 12px; font-variant-numeric: tabular-nums;
    paint-order: stroke; stroke: var(--surface); stroke-width: 4px; stroke-linejoin: round; }
  .viz .reflbl { paint-order: stroke; stroke: var(--surface); stroke-width: 3px; }
  .viz .tick { fill: var(--muted); font-size: 11px; font-variant-numeric: tabular-nums; }
  .viz .grid { stroke: var(--grid); stroke-width: 1; }
  .viz .axis { stroke: var(--axis); stroke-width: 1; }
  .viz .ref { stroke: var(--ink2); stroke-width: 1; }
  .viz .reflbl { fill: var(--ink2); font-size: 11px; }
  .viz .s1 { fill: var(--s1); } .viz .s2 { fill: var(--s2); }
  .viz .ln1 { stroke: var(--s1); } .viz .ln2 { stroke: var(--s2); }
  .viz .deemph { fill: var(--deemph); }
  .viz .conn { stroke: var(--axis); stroke-width: 2; }
  .viz .ring { stroke: var(--surface); stroke-width: 2; }
</style>

<rect class="bg" width="720" height="1292" rx="8"/>
<text class="title" x="16" y="24">Per-document latency · sand032-s3-corporate50</text>
<text class="sub" x="16" y="42">50 docs, slowest first · c32 on 2×L4 · wall 56.3s</text>
<line class="grid" x1="190.0" y1="54" x2="190.0" y2="1258"/>
<text class="tick" x="190.0" y="1274" text-anchor="middle">0s</text>
<line class="grid" x1="343.3" y1="54" x2="343.3" y2="1258"/>
<text class="tick" x="343.3" y="1274" text-anchor="middle">20s</text>
<line class="grid" x1="496.7" y1="54" x2="496.7" y2="1258"/>
<text class="tick" x="496.7" y="1274" text-anchor="middle">40s</text>
<line class="grid" x1="650.0" y1="54" x2="650.0" y2="1258"/>
<text class="tick" x="650.0" y="1274" text-anchor="middle">60s</text>
<line class="axis" x1="190" y1="54" x2="190" y2="1258"/>
<line class="ref" x1="411.6" y1="50" x2="411.6" y2="1258"/>
<text class="reflbl" x="415.6" y="48">p50 28.9s</text>
<line class="ref" x1="612.4" y1="50" x2="612.4" y2="1258"/>
<text class="reflbl" x="616.4" y="48">p95 55.1s</text>
<text class="lbl" x="182" y="74.0" text-anchor="end">56881bab · powers_of_attorney</text>
<path class="s1" d="M190.0,63.0 H611.5 Q615.5,63.0 615.5,67.0 V73.0 Q615.5,77.0 611.5,77.0 H190.0 Z"><title>56881bab · powers_of_attorney: 55.5s — 9395 prompt / 217 completion tok</title></path>
<text class="val" x="621.5" y="74.0">55.5s</text>
<text class="lbl" x="182" y="98.0" text-anchor="end">74a079a9 · charter_amendment</text>
<path class="s1" d="M190.0,87.0 H608.4 Q612.4,87.0 612.4,91.0 V97.0 Q612.4,101.0 608.4,101.0 H190.0 Z"><title>74a079a9 · charter_amendment: 55.1s — 4845 prompt / 189 completion tok</title></path>
<text class="val" x="618.4" y="98.0">55.1s</text>
<text class="lbl" x="182" y="122.0" text-anchor="end">05e0e785 · indenture</text>
<path class="s1" d="M190.0,111.0 H608.4 Q612.4,111.0 612.4,115.0 V121.0 Q612.4,125.0 608.4,125.0 H190.0 Z"><title>05e0e785 · indenture: 55.1s — 7583 prompt / 198 completion tok</title></path>
<text class="val" x="618.4" y="122.0">55.1s</text>
<text class="lbl" x="182" y="146.0" text-anchor="end">daac6d20 · articles_of_incorporation</text>
<path class="s1" d="M190.0,135.0 H603.1 Q607.1,135.0 607.1,139.0 V145.0 Q607.1,149.0 603.1,149.0 H190.0 Z"><title>daac6d20 · articles_of_incorporation: 54.4s — 5557 prompt / 162 completion tok</title></path>
<text class="val" x="613.1" y="146.0">54.4s</text>
<text class="lbl" x="182" y="170.0" text-anchor="end">16e1cc01 · charter_amendment</text>
<path class="s1" d="M190.0,159.0 H563.2 Q567.2,159.0 567.2,163.0 V169.0 Q567.2,173.0 563.2,173.0 H190.0 Z"><title>16e1cc01 · charter_amendment: 49.2s — 5713 prompt / 216 completion tok</title></path>
<text class="val" x="573.2" y="170.0">49.2s</text>
<text class="lbl" x="182" y="194.0" text-anchor="end">d27c88c1 · indenture</text>
<path class="s1" d="M190.0,183.0 H563.2 Q567.2,183.0 567.2,187.0 V193.0 Q567.2,197.0 563.2,197.0 H190.0 Z"><title>d27c88c1 · indenture: 49.2s — 5858 prompt / 194 completion tok</title></path>
<text class="val" x="573.2" y="194.0">49.2s</text>
<text class="lbl" x="182" y="218.0" text-anchor="end">ed8b6f24 · indenture</text>
<path class="s1" d="M190.0,207.0 H562.4 Q566.4,207.0 566.4,211.0 V217.0 Q566.4,221.0 562.4,221.0 H190.0 Z"><title>ed8b6f24 · indenture: 49.1s — 7923 prompt / 185 completion tok</title></path>
<text class="val" x="572.4" y="218.0">49.1s</text>
<text class="lbl" x="182" y="242.0" text-anchor="end">dac19586 · articles_of_incorporation</text>
<path class="s1" d="M190.0,231.0 H543.3 Q547.3,231.0 547.3,235.0 V241.0 Q547.3,245.0 543.3,245.0 H190.0 Z"><title>dac19586 · articles_of_incorporation: 46.6s — 6825 prompt / 194 completion tok</title></path>
<text class="val" x="553.3" y="242.0">46.6s</text>
<text class="lbl" x="182" y="266.0" text-anchor="end">836c78e9 · bylaws</text>
<path class="s1" d="M190.0,255.0 H526.4 Q530.4,255.0 530.4,259.0 V265.0 Q530.4,269.0 526.4,269.0 H190.0 Z"><title>836c78e9 · bylaws: 44.4s — 7197 prompt / 166 completion tok</title></path>
<text class="val" x="536.4" y="266.0">44.4s</text>
<text class="lbl" x="182" y="290.0" text-anchor="end">22606d9c · indenture</text>
<path class="s1" d="M190.0,279.0 H514.1 Q518.1,279.0 518.1,283.0 V289.0 Q518.1,293.0 514.1,293.0 H190.0 Z"><title>22606d9c · indenture: 42.8s — 5877 prompt / 215 completion tok</title></path>
<text class="val" x="524.1" y="290.0">42.8s</text>
<text class="lbl" x="182" y="314.0" text-anchor="end">a52e256c · indenture</text>
<path class="s1" d="M190.0,303.0 H512.6 Q516.6,303.0 516.6,307.0 V313.0 Q516.6,317.0 512.6,317.0 H190.0 Z"><title>a52e256c · indenture: 42.6s — 6933 prompt / 170 completion tok</title></path>
<text class="val" x="522.6" y="314.0">42.6s</text>
<text class="lbl" x="182" y="338.0" text-anchor="end">d05b8bf5 · rights_instrument</text>
<path class="s1" d="M190.0,327.0 H495.0 Q499.0,327.0 499.0,331.0 V337.0 Q499.0,341.0 495.0,341.0 H190.0 Z"><title>d05b8bf5 · rights_instrument: 40.3s — 5481 prompt / 179 completion tok</title></path>
<text class="val" x="505.0" y="338.0">40.3s</text>
<text class="lbl" x="182" y="362.0" text-anchor="end">edcb4a91 · powers_of_attorney</text>
<path class="s1" d="M190.0,351.0 H480.4 Q484.4,351.0 484.4,355.0 V361.0 Q484.4,365.0 480.4,365.0 H190.0 Z"><title>edcb4a91 · powers_of_attorney: 38.4s — 6451 prompt / 194 completion tok</title></path>
<text class="val" x="490.4" y="362.0">38.4s</text>
<text class="lbl" x="182" y="386.0" text-anchor="end">acc64d5e · indenture</text>
<path class="s1" d="M190.0,375.0 H473.5 Q477.5,375.0 477.5,379.0 V385.0 Q477.5,389.0 473.5,389.0 H190.0 Z"><title>acc64d5e · indenture: 37.5s — 7235 prompt / 168 completion tok</title></path>
<text class="val" x="483.5" y="386.0">37.5s</text>
<text class="lbl" x="182" y="410.0" text-anchor="end">59faee66 · board_resolution</text>
<path class="s1" d="M190.0,399.0 H473.5 Q477.5,399.0 477.5,403.0 V409.0 Q477.5,413.0 473.5,413.0 H190.0 Z"><title>59faee66 · board_resolution: 37.5s — 2644 prompt / 162 completion tok</title></path>
<text class="val" x="483.5" y="410.0">37.5s</text>
<text class="lbl" x="182" y="434.0" text-anchor="end">817f1211 · charter_amendment</text>
<path class="s1" d="M190.0,423.0 H473.5 Q477.5,423.0 477.5,427.0 V433.0 Q477.5,437.0 473.5,437.0 H190.0 Z"><title>817f1211 · charter_amendment: 37.5s — 2947 prompt / 168 completion tok</title></path>
<text class="val" x="483.5" y="434.0">37.5s</text>
<text class="lbl" x="182" y="458.0" text-anchor="end">0e736fb8 · indenture</text>
<path class="s1" d="M190.0,447.0 H467.4 Q471.4,447.0 471.4,451.0 V457.0 Q471.4,461.0 467.4,461.0 H190.0 Z"><title>0e736fb8 · indenture: 36.7s — 2760 prompt / 151 completion tok</title></path>
<text class="val" x="477.4" y="458.0">36.7s</text>
<text class="lbl" x="182" y="482.0" text-anchor="end">e0a5e812 · bylaws</text>
<path class="s1" d="M190.0,471.0 H467.4 Q471.4,471.0 471.4,475.0 V481.0 Q471.4,485.0 467.4,485.0 H190.0 Z"><title>e0a5e812 · bylaws: 36.7s — 6741 prompt / 144 completion tok</title></path>
<text class="val" x="477.4" y="482.0">36.7s</text>
<text class="lbl" x="182" y="506.0" text-anchor="end">5f17d24f · board_resolution</text>
<path class="s1" d="M190.0,495.0 H462.8 Q466.8,495.0 466.8,499.0 V505.0 Q466.8,509.0 462.8,509.0 H190.0 Z"><title>5f17d24f · board_resolution: 36.1s — 2456 prompt / 155 completion tok</title></path>
<text class="val" x="472.8" y="506.0">36.1s</text>
<text class="lbl" x="182" y="530.0" text-anchor="end">442b9df3 · officer_certificate</text>
<path class="s1" d="M190.0,519.0 H455.9 Q459.9,519.0 459.9,523.0 V529.0 Q459.9,533.0 455.9,533.0 H190.0 Z"><title>442b9df3 · officer_certificate: 35.2s — 4047 prompt / 163 completion tok</title></path>
<text class="val" x="465.9" y="530.0">35.2s</text>
<text class="lbl" x="182" y="554.0" text-anchor="end">cd9ac9b4 · officer_certificate</text>
<path class="s1" d="M190.0,543.0 H452.0 Q456.0,543.0 456.0,547.0 V553.0 Q456.0,557.0 452.0,557.0 H190.0 Z"><title>cd9ac9b4 · officer_certificate: 34.7s — 6599 prompt / 159 completion tok</title></path>
<text class="val" x="462.0" y="554.0">34.7s</text>
<text class="lbl" x="182" y="578.0" text-anchor="end">46a55578 · articles_of_incorporation</text>
<path class="s1" d="M190.0,567.0 H445.9 Q449.9,567.0 449.9,571.0 V577.0 Q449.9,581.0 445.9,581.0 H190.0 Z"><title>46a55578 · articles_of_incorporation: 33.9s — 4943 prompt / 150 completion tok</title></path>
<text class="val" x="455.9" y="578.0">33.9s</text>
<text class="lbl" x="182" y="602.0" text-anchor="end">ebe63cb7 · rights_instrument</text>
<path class="s1" d="M190.0,591.0 H439.8 Q443.8,591.0 443.8,595.0 V601.0 Q443.8,605.0 439.8,605.0 H190.0 Z"><title>ebe63cb7 · rights_instrument: 33.1s — 6718 prompt / 169 completion tok</title></path>
<text class="val" x="449.8" y="602.0">33.1s</text>
<text class="lbl" x="182" y="626.0" text-anchor="end">3b023106 · articles_of_incorporation</text>
<path class="s1" d="M190.0,615.0 H434.4 Q438.4,615.0 438.4,619.0 V625.0 Q438.4,629.0 434.4,629.0 H190.0 Z"><title>3b023106 · articles_of_incorporation: 32.4s — 6754 prompt / 157 completion tok</title></path>
<text class="val" x="444.4" y="626.0">32.4s</text>
<text class="lbl" x="182" y="650.0" text-anchor="end">091e15b5 · subsidiary_list</text>
<path class="s1" d="M190.0,639.0 H409.1 Q413.1,639.0 413.1,643.0 V649.0 Q413.1,653.0 409.1,653.0 H190.0 Z"><title>091e15b5 · subsidiary_list: 29.1s — 2310 prompt / 137 completion tok</title></path>
<text class="val" x="419.1" y="650.0">29.1s</text>
<text class="lbl" x="182" y="674.0" text-anchor="end">1666d339 · rights_instrument</text>
<path class="s1" d="M190.0,663.0 H406.8 Q410.8,663.0 410.8,667.0 V673.0 Q410.8,677.0 406.8,677.0 H190.0 Z"><title>1666d339 · rights_instrument: 28.8s — 3538 prompt / 172 completion tok</title></path>
<text class="val" x="416.8" y="674.0">28.8s</text>
<text class="lbl" x="182" y="698.0" text-anchor="end">21fca151 · officer_certificate</text>
<path class="s1" d="M190.0,687.0 H403.7 Q407.7,687.0 407.7,691.0 V697.0 Q407.7,701.0 403.7,701.0 H190.0 Z"><title>21fca151 · officer_certificate: 28.4s — 6533 prompt / 163 completion tok</title></path>
<text class="val" x="413.7" y="698.0">28.4s</text>
<text class="lbl" x="182" y="722.0" text-anchor="end">00ae6495 · rights_instrument</text>
<path class="s1" d="M190.0,711.0 H391.5 Q395.5,711.0 395.5,715.0 V721.0 Q395.5,725.0 391.5,725.0 H190.0 Z"><title>00ae6495 · rights_instrument: 26.8s — 2687 prompt / 142 completion tok</title></path>
<text class="val" x="401.5" y="722.0">26.8s</text>
<text class="lbl" x="182" y="746.0" text-anchor="end">5657643a · articles_of_incorporation</text>
<path class="s1" d="M190.0,735.0 H389.2 Q393.2,735.0 393.2,739.0 V745.0 Q393.2,749.0 389.2,749.0 H190.0 Z"><title>5657643a · articles_of_incorporation: 26.5s — 7587 prompt / 163 completion tok</title></path>
<text class="val" x="399.2" y="746.0">26.5s</text>
<text class="lbl" x="182" y="770.0" text-anchor="end">f425cd09 · charter_amendment</text>
<path class="s1" d="M190.0,759.0 H355.4 Q359.4,759.0 359.4,763.0 V769.0 Q359.4,773.0 355.4,773.0 H190.0 Z"><title>f425cd09 · charter_amendment: 22.1s — 4797 prompt / 193 completion tok</title></path>
<text class="val" x="365.4" y="770.0">22.1s</text>
<text class="lbl" x="182" y="794.0" text-anchor="end">116b9f53 · charter_amendment</text>
<path class="s1" d="M190.0,783.0 H343.2 Q347.2,783.0 347.2,787.0 V793.0 Q347.2,797.0 343.2,797.0 H190.0 Z"><title>116b9f53 · charter_amendment: 20.5s — 3334 prompt / 166 completion tok</title></path>
<text class="val" x="353.2" y="794.0">20.5s</text>
<text class="lbl" x="182" y="818.0" text-anchor="end">a8928ec5 · charter_amendment</text>
<path class="s1" d="M190.0,807.0 H337.8 Q341.8,807.0 341.8,811.0 V817.0 Q341.8,821.0 337.8,821.0 H190.0 Z"><title>a8928ec5 · charter_amendment: 19.8s — 4953 prompt / 170 completion tok</title></path>
<text class="val" x="347.8" y="818.0">19.8s</text>
<text class="lbl" x="182" y="842.0" text-anchor="end">60be90e0 · bylaws</text>
<path class="s1" d="M190.0,831.0 H333.2 Q337.2,831.0 337.2,835.0 V841.0 Q337.2,845.0 333.2,845.0 H190.0 Z"><title>60be90e0 · bylaws: 19.2s — 7196 prompt / 166 completion tok</title></path>
<text class="val" x="343.2" y="842.0">19.2s</text>
<text class="lbl" x="182" y="866.0" text-anchor="end">7d9d9653 · rights_instrument</text>
<path class="s1" d="M190.0,855.0 H319.4 Q323.4,855.0 323.4,859.0 V865.0 Q323.4,869.0 319.4,869.0 H190.0 Z"><title>7d9d9653 · rights_instrument: 17.4s — 7045 prompt / 160 completion tok</title></path>
<text class="val" x="329.4" y="866.0">17.4s</text>
<text class="lbl" x="182" y="890.0" text-anchor="end">10996846 · charter_amendment</text>
<path class="s1" d="M190.0,879.0 H319.4 Q323.4,879.0 323.4,883.0 V889.0 Q323.4,893.0 319.4,893.0 H190.0 Z"><title>10996846 · charter_amendment: 17.4s — 4257 prompt / 164 completion tok</title></path>
<text class="val" x="329.4" y="890.0">17.4s</text>
<text class="lbl" x="182" y="914.0" text-anchor="end">38de2b5e · charter_amendment</text>
<path class="s1" d="M190.0,903.0 H319.4 Q323.4,903.0 323.4,907.0 V913.0 Q323.4,917.0 319.4,917.0 H190.0 Z"><title>38de2b5e · charter_amendment: 17.4s — 3160 prompt / 163 completion tok</title></path>
<text class="val" x="329.4" y="914.0">17.4s</text>
<text class="lbl" x="182" y="938.0" text-anchor="end">7f2c7b5b · subsidiary_list</text>
<path class="s1" d="M190.0,927.0 H319.4 Q323.4,927.0 323.4,931.0 V937.0 Q323.4,941.0 319.4,941.0 H190.0 Z"><title>7f2c7b5b · subsidiary_list: 17.4s — 2656 prompt / 157 completion tok</title></path>
<text class="val" x="329.4" y="938.0">17.4s</text>
<text class="lbl" x="182" y="962.0" text-anchor="end">13b1c270 · board_resolution</text>
<path class="s1" d="M190.0,951.0 H318.6 Q322.6,951.0 322.6,955.0 V961.0 Q322.6,965.0 318.6,965.0 H190.0 Z"><title>13b1c270 · board_resolution: 17.3s — 2512 prompt / 159 completion tok</title></path>
<text class="val" x="328.6" y="962.0">17.3s</text>
<text class="lbl" x="182" y="986.0" text-anchor="end">eb06437b · subsidiary_list</text>
<path class="s1" d="M190.0,975.0 H298.7 Q302.7,975.0 302.7,979.0 V985.0 Q302.7,989.0 298.7,989.0 H190.0 Z"><title>eb06437b · subsidiary_list: 14.7s — 2446 prompt / 125 completion tok</title></path>
<text class="val" x="308.7" y="986.0">14.7s</text>
<text class="lbl" x="182" y="1010.0" text-anchor="end">cc3d91f5 · subsidiary_list</text>
<path class="s1" d="M190.0,999.0 H288.7 Q292.7,999.0 292.7,1003.0 V1009.0 Q292.7,1013.0 288.7,1013.0 H190.0 Z"><title>cc3d91f5 · subsidiary_list: 13.4s — 2232 prompt / 97 completion tok</title></path>
<text class="val" x="298.7" y="1010.0">13.4s</text>
<text class="lbl" x="182" y="1034.0" text-anchor="end">5765ec5f · subsidiary_list</text>
<path class="s1" d="M190.0,1023.0 H288.7 Q292.7,1023.0 292.7,1027.0 V1033.0 Q292.7,1037.0 288.7,1037.0 H190.0 Z"><title>5765ec5f · subsidiary_list: 13.4s — 2249 prompt / 97 completion tok</title></path>
<text class="val" x="298.7" y="1034.0">13.4s</text>
<text class="lbl" x="182" y="1058.0" text-anchor="end">f781f7db · bylaws</text>
<path class="s1" d="M190.0,1047.0 H276.5 Q280.5,1047.0 280.5,1051.0 V1057.0 Q280.5,1061.0 276.5,1061.0 H190.0 Z"><title>f781f7db · bylaws: 11.8s — 6603 prompt / 151 completion tok</title></path>
<text class="val" x="286.5" y="1058.0">11.8s</text>
<text class="lbl" x="182" y="1082.0" text-anchor="end">f72c5e65 · officer_certificate</text>
<path class="s1" d="M190.0,1071.0 H275.7 Q279.7,1071.0 279.7,1075.0 V1081.0 Q279.7,1085.0 275.7,1085.0 H190.0 Z"><title>f72c5e65 · officer_certificate: 11.7s — 6557 prompt / 157 completion tok</title></path>
<text class="val" x="285.7" y="1082.0">11.7s</text>
<text class="lbl" x="182" y="1106.0" text-anchor="end">98b8597e · bylaws</text>
<path class="s1" d="M190.0,1095.0 H273.4 Q277.4,1095.0 277.4,1099.0 V1105.0 Q277.4,1109.0 273.4,1109.0 H190.0 Z"><title>98b8597e · bylaws: 11.4s — 6615 prompt / 145 completion tok</title></path>
<text class="val" x="283.4" y="1106.0">11.4s</text>
<text class="lbl" x="182" y="1130.0" text-anchor="end">432fc57f · rights_instrument</text>
<path class="s1" d="M190.0,1119.0 H270.3 Q274.3,1119.0 274.3,1123.0 V1129.0 Q274.3,1133.0 270.3,1133.0 H190.0 Z"><title>432fc57f · rights_instrument: 11.0s — 2647 prompt / 159 completion tok</title></path>
<text class="val" x="280.3" y="1130.0">11.0s</text>
<text class="lbl" x="182" y="1154.0" text-anchor="end">ab812830 · board_resolution</text>
<path class="s1" d="M190.0,1143.0 H268.8 Q272.8,1143.0 272.8,1147.0 V1153.0 Q272.8,1157.0 268.8,1157.0 H190.0 Z"><title>ab812830 · board_resolution: 10.8s — 2515 prompt / 164 completion tok</title></path>
<text class="val" x="278.8" y="1154.0">10.8s</text>
<text class="lbl" x="182" y="1178.0" text-anchor="end">31fb1032 · officer_certificate</text>
<path class="s1" d="M190.0,1167.0 H258.8 Q262.8,1167.0 262.8,1171.0 V1177.0 Q262.8,1181.0 258.8,1181.0 H190.0 Z"><title>31fb1032 · officer_certificate: 9.5s — 6001 prompt / 152 completion tok</title></path>
<text class="val" x="268.8" y="1178.0">9.5s</text>
<text class="lbl" x="182" y="1202.0" text-anchor="end">ba2b2cde · officer_certificate</text>
<path class="s1" d="M190.0,1191.0 H248.9 Q252.9,1191.0 252.9,1195.0 V1201.0 Q252.9,1205.0 248.9,1205.0 H190.0 Z"><title>ba2b2cde · officer_certificate: 8.2s — 6545 prompt / 157 completion tok</title></path>
<text class="val" x="258.9" y="1202.0">8.2s</text>
<text class="lbl" x="182" y="1226.0" text-anchor="end">80a43715 · subsidiary_list</text>
<path class="s1" d="M190.0,1215.0 H242.0 Q246.0,1215.0 246.0,1219.0 V1225.0 Q246.0,1229.0 242.0,1229.0 H190.0 Z"><title>80a43715 · subsidiary_list: 7.3s — 2250 prompt / 121 completion tok</title></path>
<text class="val" x="252.0" y="1226.0">7.3s</text>
<text class="lbl" x="182" y="1250.0" text-anchor="end">47f299e6 · bylaws</text>
<path class="s1" d="M190.0,1239.0 H236.6 Q240.6,1239.0 240.6,1243.0 V1249.0 Q240.6,1253.0 236.6,1253.0 H190.0 Z"><title>47f299e6 · bylaws: 6.6s — 7237 prompt / 163 completion tok</title></path>
<text class="val" x="246.6" y="1250.0">6.6s</text>
</svg>