<svg xmlns="http://www.w3.org/2000/svg" class="viz" viewBox="0 0 720 548" width="720" height="548" role="img" aria-label="Mean overall extraction score by subclass · sand032-s3-contracts50">

<style>
  .viz { font-family: system-ui, -apple-system, "Segoe UI", sans-serif;
    --surface:#fcfcfb; --ink:#0b0b0b; --ink2:#52514e; --muted:#898781;
    --grid:#e1e0d9; --axis:#c3c2b7; --s1:#2a78d6; --s2:#eb6834; --deemph:#c3c2b7;
    --good:#0ca30c; --critical:#d03b3b; }
  @media (prefers-color-scheme: dark) {
    .viz { --surface:#1a1a19; --ink:#ffffff; --ink2:#c3c2b7; --muted:#898781;
      --grid:#2c2c2a; --axis:#383835; --s1:#3987e5; --s2:#d95926; --deemph:#52514e; }
  }
  .viz .bg { fill: var(--surface); }
  .viz .title { fill: var(--ink); font-size: 15px; font-weight: 600; }
  .viz .sub { fill: var(--ink2); font-size: 12px; }
  .viz .lbl { fill: var(--ink2); font-size: 12px; }
  .viz .val { fill: var(--ink); font-size: 12px; font-variant-numeric: tabular-nums;
    paint-order: stroke; stroke: var(--surface); stroke-width: 4px; stroke-linejoin: round; }
  .viz .reflbl { paint-order: stroke; stroke: var(--surface); stroke-width: 3px; }
  .viz .tick { fill: var(--muted); font-size: 11px; font-variant-numeric: tabular-nums; }
  .viz .grid { stroke: var(--grid); stroke-width: 1; }
  .viz .axis { stroke: var(--axis); stroke-width: 1; }
  .viz .ref { stroke: var(--ink2); stroke-width: 1; }
  .viz .reflbl { fill: var(--ink2); font-size: 11px; }
  .viz .s1 { fill: var(--s1); } .viz .s2 { fill: var(--s2); }
  .viz .ln1 { stroke: var(--s1); } .viz .ln2 { stroke: var(--s2); }
  .viz .deemph { fill: var(--deemph); }
  .viz .conn { stroke: var(--axis); stroke-width: 2; }
  .viz .ring { stroke: var(--surface); stroke-width: 2; }
</style>

<rect class="bg" width="720" height="548" rx="8"/>
<text class="title" x="16" y="24">Mean overall extraction score by subclass · sand032-s3-contracts50</text>
<text class="sub" x="16" y="42">overall mean 0.6011 across 47 docs (0–1, higher is better)</text>
<line class="grid" x1="190.0" y1="54" x2="190.0" y2="514"/>
<text class="tick" x="190.0" y="530" text-anchor="middle">0</text>
<line class="grid" x1="305.0" y1="54" x2="305.0" y2="514"/>
<text class="tick" x="305.0" y="530" text-anchor="middle">0.25</text>
<line class="grid" x1="420.0" y1="54" x2="420.0" y2="514"/>
<text class="tick" x="420.0" y="530" text-anchor="middle">0.5</text>
<line class="grid" x1="535.0" y1="54" x2="535.0" y2="514"/>
<text class="tick" x="535.0" y="530" text-anchor="middle">0.75</text>
<line class="grid" x1="650.0" y1="54" x2="650.0" y2="514"/>
<text class="tick" x="650.0" y="530" text-anchor="middle">1</text>
<line class="axis" x1="190" y1="54" x2="190" y2="514"/>
<text class="lbl" x="182" y="74.0" text-anchor="end">Joint Venture _ Filing (n=1)</text>
<path class="s1" d="M190.0,63.0 H580.3 Q584.3,63.0 584.3,67.0 V73.0 Q584.3,77.0 580.3,77.0 H190.0 Z"><title>Joint Venture _ Filing (n=1): 0.857</title></path>
<text class="val" x="590.3" y="74.0">0.857</text>
<text class="lbl" x="182" y="98.0" text-anchor="end">Sponsorship (n=3)</text>
<path class="s1" d="M190.0,87.0 H521.3 Q525.3,87.0 525.3,91.0 V97.0 Q525.3,101.0 521.3,101.0 H190.0 Z"><title>Sponsorship (n=3): 0.729</title></path>
<text class="val" x="531.3" y="98.0">0.729</text>
<text class="lbl" x="182" y="122.0" text-anchor="end">Service (n=1)</text>
<path class="s1" d="M190.0,111.0 H492.7 Q496.7,111.0 496.7,115.0 V121.0 Q496.7,125.0 492.7,125.0 H190.0 Z"><title>Service (n=1): 0.667</title></path>
<text class="val" x="502.7" y="122.0">0.667</text>
<text class="lbl" x="182" y="146.0" text-anchor="end">Hosting (n=2)</text>
<path class="s1" d="M190.0,135.0 H487.0 Q491.0,135.0 491.0,139.0 V145.0 Q491.0,149.0 487.0,149.0 H190.0 Z"><title>Hosting (n=2): 0.654</title></path>
<text class="val" x="497.0" y="146.0">0.654</text>
<text class="lbl" x="182" y="170.0" text-anchor="end">Agency Agreements (n=1)</text>
<path class="s1" d="M190.0,159.0 H481.7 Q485.7,159.0 485.7,163.0 V169.0 Q485.7,173.0 481.7,173.0 H190.0 Z"><title>Agency Agreements (n=1): 0.643</title></path>
<text class="val" x="491.7" y="170.0">0.643</text>
<text class="lbl" x="182" y="194.0" text-anchor="end">Distributor (n=1)</text>
<path class="s1" d="M190.0,183.0 H471.5 Q475.5,183.0 475.5,187.0 V193.0 Q475.5,197.0 471.5,197.0 H190.0 Z"><title>Distributor (n=1): 0.621</title></path>
<text class="val" x="481.5" y="194.0">0.621</text>
<text class="lbl" x="182" y="218.0" text-anchor="end">Supply (n=5)</text>
<path class="s1" d="M190.0,207.0 H471.1 Q475.1,207.0 475.1,211.0 V217.0 Q475.1,221.0 471.1,221.0 H190.0 Z"><title>Supply (n=5): 0.620</title></path>
<text class="val" x="481.1" y="218.0">0.620</text>
<text class="lbl" x="182" y="242.0" text-anchor="end">Reseller (n=1)</text>
<path class="s1" d="M190.0,231.0 H464.8 Q468.8,231.0 468.8,235.0 V241.0 Q468.8,245.0 464.8,245.0 H190.0 Z"><title>Reseller (n=1): 0.606</title></path>
<text class="val" x="474.8" y="242.0">0.606</text>
<text class="lbl" x="182" y="266.0" text-anchor="end">License_Agreements (n=1)</text>
<path class="s1" d="M190.0,255.0 H462.0 Q466.0,255.0 466.0,259.0 V265.0 Q466.0,269.0 462.0,269.0 H190.0 Z"><title>License_Agreements (n=1): 0.600</title></path>
<text class="val" x="472.0" y="266.0">0.600</text>
<text class="lbl" x="182" y="290.0" text-anchor="end">Strategic Alliance (n=3)</text>
<path class="s1" d="M190.0,279.0 H460.7 Q464.7,279.0 464.7,283.0 V289.0 Q464.7,293.0 460.7,293.0 H190.0 Z"><title>Strategic Alliance (n=3): 0.597</title></path>
<text class="val" x="470.7" y="290.0">0.597</text>
<text class="lbl" x="182" y="314.0" text-anchor="end">Promotion (n=1)</text>
<path class="s1" d="M190.0,303.0 H459.5 Q463.5,303.0 463.5,307.0 V313.0 Q463.5,317.0 459.5,317.0 H190.0 Z"><title>Promotion (n=1): 0.595</title></path>
<text class="val" x="469.5" y="314.0">0.595</text>
<text class="lbl" x="182" y="338.0" text-anchor="end">IP (n=1)</text>
<path class="s1" d="M190.0,327.0 H456.6 Q460.6,327.0 460.6,331.0 V337.0 Q460.6,341.0 456.6,341.0 H190.0 Z"><title>IP (n=1): 0.588</title></path>
<text class="val" x="466.6" y="338.0">0.588</text>
<text class="lbl" x="182" y="362.0" text-anchor="end">Maintenance (n=4)</text>
<path class="s1" d="M190.0,351.0 H456.2 Q460.2,351.0 460.2,355.0 V361.0 Q460.2,365.0 456.2,365.0 H190.0 Z"><title>Maintenance (n=4): 0.588</title></path>
<text class="val" x="466.2" y="362.0">0.588</text>
<text class="lbl" x="182" y="386.0" text-anchor="end">Co_Branding (n=4)</text>
<path class="s1" d="M190.0,375.0 H448.0 Q452.0,375.0 452.0,379.0 V385.0 Q452.0,389.0 448.0,389.0 H190.0 Z"><title>Co_Branding (n=4): 0.570</title></path>
<text class="val" x="458.0" y="386.0">0.570</text>
<text class="lbl" x="182" y="410.0" text-anchor="end">Endorsement (n=3)</text>
<path class="s1" d="M190.0,399.0 H447.5 Q451.5,399.0 451.5,403.0 V409.0 Q451.5,413.0 447.5,413.0 H190.0 Z"><title>Endorsement (n=3): 0.568</title></path>
<text class="val" x="457.5" y="410.0">0.568</text>
<text class="lbl" x="182" y="434.0" text-anchor="end">Franchise (n=1)</text>
<path class="s1" d="M190.0,423.0 H441.6 Q445.6,423.0 445.6,427.0 V433.0 Q445.6,437.0 441.6,437.0 H190.0 Z"><title>Franchise (n=1): 0.556</title></path>
<text class="val" x="451.6" y="434.0">0.556</text>
<text class="lbl" x="182" y="458.0" text-anchor="end">Development (n=3)</text>
<path class="s1" d="M190.0,447.0 H423.5 Q427.5,447.0 427.5,451.0 V457.0 Q427.5,461.0 423.5,461.0 H190.0 Z"><title>Development (n=3): 0.516</title></path>
<text class="val" x="433.5" y="458.0">0.516</text>
<text class="lbl" x="182" y="482.0" text-anchor="end">Joint Venture (n=1)</text>
<path class="s1" d="M190.0,471.0 H408.1 Q412.1,471.0 412.1,475.0 V481.0 Q412.1,485.0 408.1,485.0 H190.0 Z"><title>Joint Venture (n=1): 0.483</title></path>
<text class="val" x="418.1" y="482.0">0.483</text>
<text class="lbl" x="182" y="506.0" text-anchor="end">Marketing (n=1)</text>
<path class="s1" d="M190.0,495.0 H350.3 Q354.3,495.0 354.3,499.0 V505.0 Q354.3,509.0 350.3,509.0 H190.0 Z"><title>Marketing (n=1): 0.357</title></path>
<text class="val" x="360.3" y="506.0">0.357</text>
</svg>