<svg xmlns="http://www.w3.org/2000/svg" class="viz" viewBox="0 0 720 1892" width="720" height="1892" role="img" aria-label="Per-document latency · sand032-s10-insurance75-v2">

<style>
  .viz { font-family: system-ui, -apple-system, "Segoe UI", sans-serif;
    --surface:#fcfcfb; --ink:#0b0b0b; --ink2:#52514e; --muted:#898781;
    --grid:#e1e0d9; --axis:#c3c2b7; --s1:#2a78d6; --s2:#eb6834; --deemph:#c3c2b7;
    --good:#0ca30c; --critical:#d03b3b; }
  @media (prefers-color-scheme: dark) {
    .viz { --surface:#1a1a19; --ink:#ffffff; --ink2:#c3c2b7; --muted:#898781;
      --grid:#2c2c2a; --axis:#383835; --s1:#3987e5; --s2:#d95926; --deemph:#52514e; }
  }
  .viz .bg { fill: var(--surface); }
  .viz .title { fill: var(--ink); font-size: 15px; font-weight: 600; }
  .viz .sub { fill: var(--ink2); font-size: 12px; }
  .viz .lbl { fill: var(--ink2); font-size: 12px; }
  .viz .val { fill: var(--ink); font-size: 12px; font-variant-numeric: tabular-nums;
    paint-order: stroke; stroke: var(--surface); stroke-width: 4px; stroke-linejoin: round; }
  .viz .reflbl { paint-order: stroke; stroke: var(--surface); stroke-width: 3px; }
  .viz .tick { fill: var(--muted); font-size: 11px; font-variant-numeric: tabular-nums; }
  .viz .grid { stroke: var(--grid); stroke-width: 1; }
  .viz .axis { stroke: var(--axis); stroke-width: 1; }
  .viz .ref { stroke: var(--ink2); stroke-width: 1; }
  .viz .reflbl { fill: var(--ink2); font-size: 11px; }
  .viz .s1 { fill: var(--s1); } .viz .s2 { fill: var(--s2); }
  .viz .ln1 { stroke: var(--s1); } .viz .ln2 { stroke: var(--s2); }
  .viz .deemph { fill: var(--deemph); }
  .viz .conn { stroke: var(--axis); stroke-width: 2; }
  .viz .ring { stroke: var(--surface); stroke-width: 2; }
</style>

<rect class="bg" width="720" height="1892" rx="8"/>
<text class="title" x="16" y="24">Per-document latency · sand032-s10-insurance75-v2</text>
<text class="sub" x="16" y="42">75 docs, slowest first · c8 on 1×L4 · wall 145.8s</text>
<line class="grid" x1="190.0" y1="54" x2="190.0" y2="1858"/>
<text class="tick" x="190.0" y="1874" text-anchor="middle">0s</text>
<line class="grid" x1="343.3" y1="54" x2="343.3" y2="1858"/>
<text class="tick" x="343.3" y="1874" text-anchor="middle">20s</text>
<line class="grid" x1="496.7" y1="54" x2="496.7" y2="1858"/>
<text class="tick" x="496.7" y="1874" text-anchor="middle">40s</text>
<line class="grid" x1="650.0" y1="54" x2="650.0" y2="1858"/>
<text class="tick" x="650.0" y="1874" text-anchor="middle">60s</text>
<line class="axis" x1="190" y1="54" x2="190" y2="1858"/>
<line class="ref" x1="290.4" y1="50" x2="290.4" y2="1858"/>
<text class="reflbl" x="294.4" y="48">p50 13.1s</text>
<line class="ref" x1="377.1" y1="50" x2="377.1" y2="1858"/>
<text class="reflbl" x="381.1" y="48">p95 24.4s</text>
<text class="lbl" x="182" y="74.0" text-anchor="end">a9e7bd71 · property</text>
<path class="s1" d="M190.0,63.0 H500.3 Q504.3,63.0 504.3,67.0 V73.0 Q504.3,77.0 500.3,77.0 H190.0 Z"><title>a9e7bd71 · property: 41.0s — 4716 prompt / 970 completion tok</title></path>
<text class="val" x="510.3" y="74.0">41.0s</text>
<text class="lbl" x="182" y="98.0" text-anchor="end">fd1c31c3 · property</text>
<path class="s1" d="M190.0,87.0 H401.4 Q405.4,87.0 405.4,91.0 V97.0 Q405.4,101.0 401.4,101.0 H190.0 Z"><title>fd1c31c3 · property: 28.1s — 4916 prompt / 604 completion tok</title></path>
<text class="val" x="411.4" y="98.0">28.1s</text>
<text class="lbl" x="182" y="122.0" text-anchor="end">23c62250 · property</text>
<path class="s1" d="M190.0,111.0 H383.8 Q387.8,111.0 387.8,115.0 V121.0 Q387.8,125.0 383.8,125.0 H190.0 Z"><title>23c62250 · property: 25.8s — 4654 prompt / 569 completion tok</title></path>
<text class="val" x="393.8" y="122.0">25.8s</text>
<text class="lbl" x="182" y="146.0" text-anchor="end">4f9db00c · property</text>
<path class="s1" d="M190.0,135.0 H373.1 Q377.1,135.0 377.1,139.0 V145.0 Q377.1,149.0 373.1,149.0 H190.0 Z"><title>4f9db00c · property: 24.4s — 4822 prompt / 564 completion tok</title></path>
<text class="val" x="383.1" y="146.0">24.4s</text>
<text class="lbl" x="182" y="170.0" text-anchor="end">841aea5f · property</text>
<path class="s1" d="M190.0,159.0 H366.9 Q370.9,159.0 370.9,163.0 V169.0 Q370.9,173.0 366.9,173.0 H190.0 Z"><title>841aea5f · property: 23.6s — 4920 prompt / 520 completion tok</title></path>
<text class="val" x="376.9" y="170.0">23.6s</text>
<text class="lbl" x="182" y="194.0" text-anchor="end">ee1d5261 · property</text>
<path class="s1" d="M190.0,183.0 H365.4 Q369.4,183.0 369.4,187.0 V193.0 Q369.4,197.0 365.4,197.0 H190.0 Z"><title>ee1d5261 · property: 23.4s — 6327 prompt / 687 completion tok</title></path>
<text class="val" x="375.4" y="194.0">23.4s</text>
<text class="lbl" x="182" y="218.0" text-anchor="end">14fde496 · property</text>
<path class="s1" d="M190.0,207.0 H361.6 Q365.6,207.0 365.6,211.0 V217.0 Q365.6,221.0 361.6,221.0 H190.0 Z"><title>14fde496 · property: 22.9s — 4520 prompt / 510 completion tok</title></path>
<text class="val" x="371.6" y="218.0">22.9s</text>
<text class="lbl" x="182" y="242.0" text-anchor="end">7105d6fc · property</text>
<path class="s1" d="M190.0,231.0 H355.4 Q359.4,231.0 359.4,235.0 V241.0 Q359.4,245.0 355.4,245.0 H190.0 Z"><title>7105d6fc · property: 22.1s — 5139 prompt / 499 completion tok</title></path>
<text class="val" x="365.4" y="242.0">22.1s</text>
<text class="lbl" x="182" y="266.0" text-anchor="end">ba9c105b · property</text>
<path class="s1" d="M190.0,255.0 H347.0 Q351.0,255.0 351.0,259.0 V265.0 Q351.0,269.0 347.0,269.0 H190.0 Z"><title>ba9c105b · property: 21.0s — 5742 prompt / 446 completion tok</title></path>
<text class="val" x="357.0" y="266.0">21.0s</text>
<text class="lbl" x="182" y="290.0" text-anchor="end">247a0a6e · property</text>
<path class="s1" d="M190.0,279.0 H340.1 Q344.1,279.0 344.1,283.0 V289.0 Q344.1,293.0 340.1,293.0 H190.0 Z"><title>247a0a6e · property: 20.1s — 4721 prompt / 582 completion tok</title></path>
<text class="val" x="350.1" y="290.0">20.1s</text>
<text class="lbl" x="182" y="314.0" text-anchor="end">18ded42d · inpatient</text>
<path class="s1" d="M190.0,303.0 H326.3 Q330.3,303.0 330.3,307.0 V313.0 Q330.3,317.0 326.3,317.0 H190.0 Z"><title>18ded42d · inpatient: 18.3s — 3119 prompt / 482 completion tok</title></path>
<text class="val" x="336.3" y="314.0">18.3s</text>
<text class="lbl" x="182" y="338.0" text-anchor="end">159914e3 · inpatient</text>
<path class="s1" d="M190.0,327.0 H325.5 Q329.5,327.0 329.5,331.0 V337.0 Q329.5,341.0 325.5,341.0 H190.0 Z"><title>159914e3 · inpatient: 18.2s — 3113 prompt / 477 completion tok</title></path>
<text class="val" x="335.5" y="338.0">18.2s</text>
<text class="lbl" x="182" y="362.0" text-anchor="end">c67bae80 · property</text>
<path class="s1" d="M190.0,351.0 H324.0 Q328.0,351.0 328.0,355.0 V361.0 Q328.0,365.0 324.0,365.0 H190.0 Z"><title>c67bae80 · property: 18.0s — 5031 prompt / 410 completion tok</title></path>
<text class="val" x="334.0" y="362.0">18.0s</text>
<text class="lbl" x="182" y="386.0" text-anchor="end">1823372d · pde</text>
<path class="s1" d="M190.0,375.0 H320.2 Q324.2,375.0 324.2,379.0 V385.0 Q324.2,389.0 320.2,389.0 H190.0 Z"><title>1823372d · pde: 17.5s — 2915 prompt / 370 completion tok</title></path>
<text class="val" x="330.2" y="386.0">17.5s</text>
<text class="lbl" x="182" y="410.0" text-anchor="end">0664c6e0 · pde</text>
<path class="s1" d="M190.0,399.0 H318.6 Q322.6,399.0 322.6,403.0 V409.0 Q322.6,413.0 318.6,413.0 H190.0 Z"><title>0664c6e0 · pde: 17.3s — 2917 prompt / 360 completion tok</title></path>
<text class="val" x="328.6" y="410.0">17.3s</text>
<text class="lbl" x="182" y="434.0" text-anchor="end">2037b6eb · inpatient</text>
<path class="s1" d="M190.0,423.0 H313.3 Q317.3,423.0 317.3,427.0 V433.0 Q317.3,437.0 313.3,437.0 H190.0 Z"><title>2037b6eb · inpatient: 16.6s — 3162 prompt / 445 completion tok</title></path>
<text class="val" x="323.3" y="434.0">16.6s</text>
<text class="lbl" x="182" y="458.0" text-anchor="end">52979f50 · inpatient</text>
<path class="s1" d="M190.0,447.0 H311.0 Q315.0,447.0 315.0,451.0 V457.0 Q315.0,461.0 311.0,461.0 H190.0 Z"><title>52979f50 · inpatient: 16.3s — 3154 prompt / 432 completion tok</title></path>
<text class="val" x="321.0" y="458.0">16.3s</text>
<text class="lbl" x="182" y="482.0" text-anchor="end">e427f8c2 · property</text>
<path class="s1" d="M190.0,471.0 H310.2 Q314.2,471.0 314.2,475.0 V481.0 Q314.2,485.0 310.2,485.0 H190.0 Z"><title>e427f8c2 · property: 16.2s — 5369 prompt / 512 completion tok</title></path>
<text class="val" x="320.2" y="482.0">16.2s</text>
<text class="lbl" x="182" y="506.0" text-anchor="end">2aca8aad · auto</text>
<path class="s1" d="M190.0,495.0 H309.4 Q313.4,495.0 313.4,499.0 V505.0 Q313.4,509.0 309.4,509.0 H190.0 Z"><title>2aca8aad · auto: 16.1s — 2867 prompt / 387 completion tok</title></path>
<text class="val" x="319.4" y="506.0">16.1s</text>
<text class="lbl" x="182" y="530.0" text-anchor="end">c987119d · outpatient</text>
<path class="s1" d="M190.0,519.0 H304.8 Q308.8,519.0 308.8,523.0 V529.0 Q308.8,533.0 304.8,533.0 H190.0 Z"><title>c987119d · outpatient: 15.5s — 3064 prompt / 421 completion tok</title></path>
<text class="val" x="314.8" y="530.0">15.5s</text>
<text class="lbl" x="182" y="554.0" text-anchor="end">b14bfac9 · pde</text>
<path class="s1" d="M190.0,543.0 H304.8 Q308.8,543.0 308.8,547.0 V553.0 Q308.8,557.0 304.8,557.0 H190.0 Z"><title>b14bfac9 · pde: 15.5s — 2905 prompt / 337 completion tok</title></path>
<text class="val" x="314.8" y="554.0">15.5s</text>
<text class="lbl" x="182" y="578.0" text-anchor="end">af3bd4c2 · outpatient</text>
<path class="s1" d="M190.0,567.0 H304.1 Q308.1,567.0 308.1,571.0 V577.0 Q308.1,581.0 304.1,581.0 H190.0 Z"><title>af3bd4c2 · outpatient: 15.4s — 3023 prompt / 413 completion tok</title></path>
<text class="val" x="314.1" y="578.0">15.4s</text>
<text class="lbl" x="182" y="602.0" text-anchor="end">9ce4f93f · carrier</text>
<path class="s1" d="M190.0,591.0 H303.3 Q307.3,591.0 307.3,595.0 V601.0 Q307.3,605.0 303.3,605.0 H190.0 Z"><title>9ce4f93f · carrier: 15.3s — 2982 prompt / 368 completion tok</title></path>
<text class="val" x="313.3" y="602.0">15.3s</text>
<text class="lbl" x="182" y="626.0" text-anchor="end">b95844bc · inpatient</text>
<path class="s1" d="M190.0,615.0 H302.5 Q306.5,615.0 306.5,619.0 V625.0 Q306.5,629.0 302.5,629.0 H190.0 Z"><title>b95844bc · inpatient: 15.2s — 3113 prompt / 398 completion tok</title></path>
<text class="val" x="312.5" y="626.0">15.2s</text>
<text class="lbl" x="182" y="650.0" text-anchor="end">2ab25ae8 · pde</text>
<path class="s1" d="M190.0,639.0 H293.3 Q297.3,639.0 297.3,643.0 V649.0 Q297.3,653.0 293.3,653.0 H190.0 Z"><title>2ab25ae8 · pde: 14.0s — 2906 prompt / 340 completion tok</title></path>
<text class="val" x="303.3" y="650.0">14.0s</text>
<text class="lbl" x="182" y="674.0" text-anchor="end">557c7fbf · inpatient</text>
<path class="s1" d="M190.0,663.0 H291.8 Q295.8,663.0 295.8,667.0 V673.0 Q295.8,677.0 291.8,677.0 H190.0 Z"><title>557c7fbf · inpatient: 13.8s — 3158 prompt / 364 completion tok</title></path>
<text class="val" x="301.8" y="674.0">13.8s</text>
<text class="lbl" x="182" y="698.0" text-anchor="end">f0ca00c4 · pde</text>
<path class="s1" d="M190.0,687.0 H291.0 Q295.0,687.0 295.0,691.0 V697.0 Q295.0,701.0 291.0,701.0 H190.0 Z"><title>f0ca00c4 · pde: 13.7s — 2921 prompt / 330 completion tok</title></path>
<text class="val" x="301.0" y="698.0">13.7s</text>
<text class="lbl" x="182" y="722.0" text-anchor="end">5d6c9f8f · outpatient</text>
<path class="s1" d="M190.0,711.0 H290.3 Q294.3,711.0 294.3,715.0 V721.0 Q294.3,725.0 290.3,725.0 H190.0 Z"><title>5d6c9f8f · outpatient: 13.6s — 3045 prompt / 373 completion tok</title></path>
<text class="val" x="300.3" y="722.0">13.6s</text>
<text class="lbl" x="182" y="746.0" text-anchor="end">82adc61c · inpatient</text>
<path class="s1" d="M190.0,735.0 H289.5 Q293.5,735.0 293.5,739.0 V745.0 Q293.5,749.0 289.5,749.0 H190.0 Z"><title>82adc61c · inpatient: 13.5s — 3176 prompt / 360 completion tok</title></path>
<text class="val" x="299.5" y="746.0">13.5s</text>
<text class="lbl" x="182" y="770.0" text-anchor="end">375a247d · outpatient</text>
<path class="s1" d="M190.0,759.0 H289.5 Q293.5,759.0 293.5,763.0 V769.0 Q293.5,773.0 289.5,773.0 H190.0 Z"><title>375a247d · outpatient: 13.5s — 3018 prompt / 373 completion tok</title></path>
<text class="val" x="299.5" y="770.0">13.5s</text>
<text class="lbl" x="182" y="794.0" text-anchor="end">71e8885e · auto</text>
<path class="s1" d="M190.0,783.0 H289.5 Q293.5,783.0 293.5,787.0 V793.0 Q293.5,797.0 289.5,797.0 H190.0 Z"><title>71e8885e · auto: 13.5s — 2865 prompt / 369 completion tok</title></path>
<text class="val" x="299.5" y="794.0">13.5s</text>
<text class="lbl" x="182" y="818.0" text-anchor="end">70f6ab0e · outpatient</text>
<path class="s1" d="M190.0,807.0 H288.7 Q292.7,807.0 292.7,811.0 V817.0 Q292.7,821.0 288.7,821.0 H190.0 Z"><title>70f6ab0e · outpatient: 13.4s — 3019 prompt / 376 completion tok</title></path>
<text class="val" x="298.7" y="818.0">13.4s</text>
<text class="lbl" x="182" y="842.0" text-anchor="end">a8cf5b6b · auto</text>
<path class="s1" d="M190.0,831.0 H288.0 Q292.0,831.0 292.0,835.0 V841.0 Q292.0,845.0 288.0,845.0 H190.0 Z"><title>a8cf5b6b · auto: 13.3s — 2865 prompt / 368 completion tok</title></path>
<text class="val" x="298.0" y="842.0">13.3s</text>
<text class="lbl" x="182" y="866.0" text-anchor="end">52045b89 · outpatient</text>
<path class="s1" d="M190.0,855.0 H287.2 Q291.2,855.0 291.2,859.0 V865.0 Q291.2,869.0 287.2,869.0 H190.0 Z"><title>52045b89 · outpatient: 13.2s — 3014 prompt / 354 completion tok</title></path>
<text class="val" x="297.2" y="866.0">13.2s</text>
<text class="lbl" x="182" y="890.0" text-anchor="end">e78edd70 · carrier</text>
<path class="s1" d="M190.0,879.0 H287.2 Q291.2,879.0 291.2,883.0 V889.0 Q291.2,893.0 287.2,893.0 H190.0 Z"><title>e78edd70 · carrier: 13.2s — 2982 prompt / 362 completion tok</title></path>
<text class="val" x="297.2" y="890.0">13.2s</text>
<text class="lbl" x="182" y="914.0" text-anchor="end">34a19b7a · auto</text>
<path class="s1" d="M190.0,903.0 H286.4 Q290.4,903.0 290.4,907.0 V913.0 Q290.4,917.0 286.4,917.0 H190.0 Z"><title>34a19b7a · auto: 13.1s — 2868 prompt / 359 completion tok</title></path>
<text class="val" x="296.4" y="914.0">13.1s</text>
<text class="lbl" x="182" y="938.0" text-anchor="end">9f2004f5 · auto</text>
<path class="s1" d="M190.0,927.0 H286.4 Q290.4,927.0 290.4,931.0 V937.0 Q290.4,941.0 286.4,941.0 H190.0 Z"><title>9f2004f5 · auto: 13.1s — 2868 prompt / 348 completion tok</title></path>
<text class="val" x="296.4" y="938.0">13.1s</text>
<text class="lbl" x="182" y="962.0" text-anchor="end">8a0003b7 · auto</text>
<path class="s1" d="M190.0,951.0 H286.4 Q290.4,951.0 290.4,955.0 V961.0 Q290.4,965.0 286.4,965.0 H190.0 Z"><title>8a0003b7 · auto: 13.1s — 2864 prompt / 347 completion tok</title></path>
<text class="val" x="296.4" y="962.0">13.1s</text>
<text class="lbl" x="182" y="986.0" text-anchor="end">726dcfa5 · auto</text>
<path class="s1" d="M190.0,975.0 H286.4 Q290.4,975.0 290.4,979.0 V985.0 Q290.4,989.0 286.4,989.0 H190.0 Z"><title>726dcfa5 · auto: 13.1s — 2866 prompt / 336 completion tok</title></path>
<text class="val" x="296.4" y="986.0">13.1s</text>
<text class="lbl" x="182" y="1010.0" text-anchor="end">a0a0d4bd · auto</text>
<path class="s1" d="M190.0,999.0 H286.4 Q290.4,999.0 290.4,1003.0 V1009.0 Q290.4,1013.0 286.4,1013.0 H190.0 Z"><title>a0a0d4bd · auto: 13.1s — 2866 prompt / 348 completion tok</title></path>
<text class="val" x="296.4" y="1010.0">13.1s</text>
<text class="lbl" x="182" y="1034.0" text-anchor="end">c6ab0f6a · carrier</text>
<path class="s1" d="M190.0,1023.0 H286.4 Q290.4,1023.0 290.4,1027.0 V1033.0 Q290.4,1037.0 286.4,1037.0 H190.0 Z"><title>c6ab0f6a · carrier: 13.1s — 2982 prompt / 361 completion tok</title></path>
<text class="val" x="296.4" y="1034.0">13.1s</text>
<text class="lbl" x="182" y="1058.0" text-anchor="end">4cc70d9d · pde</text>
<path class="s1" d="M190.0,1047.0 H286.4 Q290.4,1047.0 290.4,1051.0 V1057.0 Q290.4,1061.0 286.4,1061.0 H190.0 Z"><title>4cc70d9d · pde: 13.1s — 2923 prompt / 370 completion tok</title></path>
<text class="val" x="296.4" y="1058.0">13.1s</text>
<text class="lbl" x="182" y="1082.0" text-anchor="end">35e31ef6 · pde</text>
<path class="s1" d="M190.0,1071.0 H284.1 Q288.1,1071.0 288.1,1075.0 V1081.0 Q288.1,1085.0 284.1,1085.0 H190.0 Z"><title>35e31ef6 · pde: 12.8s — 2904 prompt / 334 completion tok</title></path>
<text class="val" x="294.1" y="1082.0">12.8s</text>
<text class="lbl" x="182" y="1106.0" text-anchor="end">71d955cf · outpatient</text>
<path class="s1" d="M190.0,1095.0 H283.4 Q287.4,1095.0 287.4,1099.0 V1105.0 Q287.4,1109.0 283.4,1109.0 H190.0 Z"><title>71d955cf · outpatient: 12.7s — 3005 prompt / 359 completion tok</title></path>
<text class="val" x="293.4" y="1106.0">12.7s</text>
<text class="lbl" x="182" y="1130.0" text-anchor="end">bbc42e89 · auto</text>
<path class="s1" d="M190.0,1119.0 H281.8 Q285.8,1119.0 285.8,1123.0 V1129.0 Q285.8,1133.0 281.8,1133.0 H190.0 Z"><title>bbc42e89 · auto: 12.5s — 2864 prompt / 353 completion tok</title></path>
<text class="val" x="291.8" y="1130.0">12.5s</text>
<text class="lbl" x="182" y="1154.0" text-anchor="end">b3cfdb47 · carrier</text>
<path class="s1" d="M190.0,1143.0 H281.1 Q285.1,1143.0 285.1,1147.0 V1153.0 Q285.1,1157.0 281.1,1157.0 H190.0 Z"><title>b3cfdb47 · carrier: 12.4s — 2973 prompt / 333 completion tok</title></path>
<text class="val" x="291.1" y="1154.0">12.4s</text>
<text class="lbl" x="182" y="1178.0" text-anchor="end">d8ec695d · auto</text>
<path class="s1" d="M190.0,1167.0 H281.1 Q285.1,1167.0 285.1,1171.0 V1177.0 Q285.1,1181.0 281.1,1181.0 H190.0 Z"><title>d8ec695d · auto: 12.4s — 2863 prompt / 343 completion tok</title></path>
<text class="val" x="291.1" y="1178.0">12.4s</text>
<text class="lbl" x="182" y="1202.0" text-anchor="end">446c646d · pde</text>
<path class="s1" d="M190.0,1191.0 H280.3 Q284.3,1191.0 284.3,1195.0 V1201.0 Q284.3,1205.0 280.3,1205.0 H190.0 Z"><title>446c646d · pde: 12.3s — 2901 prompt / 332 completion tok</title></path>
<text class="val" x="290.3" y="1202.0">12.3s</text>
<text class="lbl" x="182" y="1226.0" text-anchor="end">2b012662 · auto</text>
<path class="s1" d="M190.0,1215.0 H280.3 Q284.3,1215.0 284.3,1219.0 V1225.0 Q284.3,1229.0 280.3,1229.0 H190.0 Z"><title>2b012662 · auto: 12.3s — 2864 prompt / 343 completion tok</title></path>
<text class="val" x="290.3" y="1226.0">12.3s</text>
<text class="lbl" x="182" y="1250.0" text-anchor="end">cb7a2f63 · carrier</text>
<path class="s1" d="M190.0,1239.0 H279.5 Q283.5,1239.0 283.5,1243.0 V1249.0 Q283.5,1253.0 279.5,1253.0 H190.0 Z"><title>cb7a2f63 · carrier: 12.2s — 3013 prompt / 346 completion tok</title></path>
<text class="val" x="289.5" y="1250.0">12.2s</text>
<text class="lbl" x="182" y="1274.0" text-anchor="end">46615526 · carrier</text>
<path class="s1" d="M190.0,1263.0 H279.5 Q283.5,1263.0 283.5,1267.0 V1273.0 Q283.5,1277.0 279.5,1277.0 H190.0 Z"><title>46615526 · carrier: 12.2s — 2982 prompt / 333 completion tok</title></path>
<text class="val" x="289.5" y="1274.0">12.2s</text>
<text class="lbl" x="182" y="1298.0" text-anchor="end">3350fb36 · carrier</text>
<path class="s1" d="M190.0,1287.0 H278.8 Q282.8,1287.0 282.8,1291.0 V1297.0 Q282.8,1301.0 278.8,1301.0 H190.0 Z"><title>3350fb36 · carrier: 12.1s — 3002 prompt / 334 completion tok</title></path>
<text class="val" x="288.8" y="1298.0">12.1s</text>
<text class="lbl" x="182" y="1322.0" text-anchor="end">7428a0ed · carrier</text>
<path class="s1" d="M190.0,1311.0 H278.8 Q282.8,1311.0 282.8,1315.0 V1321.0 Q282.8,1325.0 278.8,1325.0 H190.0 Z"><title>7428a0ed · carrier: 12.1s — 3049 prompt / 335 completion tok</title></path>
<text class="val" x="288.8" y="1322.0">12.1s</text>
<text class="lbl" x="182" y="1346.0" text-anchor="end">98a42322 · outpatient</text>
<path class="s1" d="M190.0,1335.0 H278.0 Q282.0,1335.0 282.0,1339.0 V1345.0 Q282.0,1349.0 278.0,1349.0 H190.0 Z"><title>98a42322 · outpatient: 12.0s — 3049 prompt / 337 completion tok</title></path>
<text class="val" x="288.0" y="1346.0">12.0s</text>
<text class="lbl" x="182" y="1370.0" text-anchor="end">db9e8f1e · carrier</text>
<path class="s1" d="M190.0,1359.0 H278.0 Q282.0,1359.0 282.0,1363.0 V1369.0 Q282.0,1373.0 278.0,1373.0 H190.0 Z"><title>db9e8f1e · carrier: 12.0s — 3035 prompt / 334 completion tok</title></path>
<text class="val" x="288.0" y="1370.0">12.0s</text>
<text class="lbl" x="182" y="1394.0" text-anchor="end">52911808 · outpatient</text>
<path class="s1" d="M190.0,1383.0 H277.2 Q281.2,1383.0 281.2,1387.0 V1393.0 Q281.2,1397.0 277.2,1397.0 H190.0 Z"><title>52911808 · outpatient: 11.9s — 3002 prompt / 333 completion tok</title></path>
<text class="val" x="287.2" y="1394.0">11.9s</text>
<text class="lbl" x="182" y="1418.0" text-anchor="end">36ac02ca · carrier</text>
<path class="s1" d="M190.0,1407.0 H274.9 Q278.9,1407.0 278.9,1411.0 V1417.0 Q278.9,1421.0 274.9,1421.0 H190.0 Z"><title>36ac02ca · carrier: 11.6s — 2992 prompt / 338 completion tok</title></path>
<text class="val" x="284.9" y="1418.0">11.6s</text>
<text class="lbl" x="182" y="1442.0" text-anchor="end">27f6d6b4 · outpatient</text>
<path class="s1" d="M190.0,1431.0 H271.1 Q275.1,1431.0 275.1,1435.0 V1441.0 Q275.1,1445.0 271.1,1445.0 H190.0 Z"><title>27f6d6b4 · outpatient: 11.1s — 3037 prompt / 329 completion tok</title></path>
<text class="val" x="281.1" y="1442.0">11.1s</text>
<text class="lbl" x="182" y="1466.0" text-anchor="end">a4d2d24f · auto</text>
<path class="s1" d="M190.0,1455.0 H271.1 Q275.1,1455.0 275.1,1459.0 V1465.0 Q275.1,1469.0 271.1,1469.0 H190.0 Z"><title>a4d2d24f · auto: 11.1s — 2837 prompt / 297 completion tok</title></path>
<text class="val" x="281.1" y="1466.0">11.1s</text>
<text class="lbl" x="182" y="1490.0" text-anchor="end">1d801de5 · outpatient</text>
<path class="s1" d="M190.0,1479.0 H271.1 Q275.1,1479.0 275.1,1483.0 V1489.0 Q275.1,1493.0 271.1,1493.0 H190.0 Z"><title>1d801de5 · outpatient: 11.1s — 3056 prompt / 316 completion tok</title></path>
<text class="val" x="281.1" y="1490.0">11.1s</text>
<text class="lbl" x="182" y="1514.0" text-anchor="end">93dd2f13 · auto</text>
<path class="s1" d="M190.0,1503.0 H271.1 Q275.1,1503.0 275.1,1507.0 V1513.0 Q275.1,1517.0 271.1,1517.0 H190.0 Z"><title>93dd2f13 · auto: 11.1s — 2840 prompt / 303 completion tok</title></path>
<text class="val" x="281.1" y="1514.0">11.1s</text>
<text class="lbl" x="182" y="1538.0" text-anchor="end">78bfe249 · carrier</text>
<path class="s1" d="M190.0,1527.0 H270.3 Q274.3,1527.0 274.3,1531.0 V1537.0 Q274.3,1541.0 270.3,1541.0 H190.0 Z"><title>78bfe249 · carrier: 11.0s — 2967 prompt / 332 completion tok</title></path>
<text class="val" x="280.3" y="1538.0">11.0s</text>
<text class="lbl" x="182" y="1562.0" text-anchor="end">11867685 · carrier</text>
<path class="s1" d="M190.0,1551.0 H270.3 Q274.3,1551.0 274.3,1555.0 V1561.0 Q274.3,1565.0 270.3,1565.0 H190.0 Z"><title>11867685 · carrier: 11.0s — 3077 prompt / 323 completion tok</title></path>
<text class="val" x="280.3" y="1562.0">11.0s</text>
<text class="lbl" x="182" y="1586.0" text-anchor="end">397d7806 · auto</text>
<path class="s1" d="M190.0,1575.0 H269.6 Q273.6,1575.0 273.6,1579.0 V1585.0 Q273.6,1589.0 269.6,1589.0 H190.0 Z"><title>397d7806 · auto: 10.9s — 2845 prompt / 297 completion tok</title></path>
<text class="val" x="279.6" y="1586.0">10.9s</text>
<text class="lbl" x="182" y="1610.0" text-anchor="end">6be4ad51 · auto</text>
<path class="s1" d="M190.0,1599.0 H269.6 Q273.6,1599.0 273.6,1603.0 V1609.0 Q273.6,1613.0 269.6,1613.0 H190.0 Z"><title>6be4ad51 · auto: 10.9s — 2841 prompt / 302 completion tok</title></path>
<text class="val" x="279.6" y="1610.0">10.9s</text>
<text class="lbl" x="182" y="1634.0" text-anchor="end">349be3ad · auto</text>
<path class="s1" d="M190.0,1623.0 H269.6 Q273.6,1623.0 273.6,1627.0 V1633.0 Q273.6,1637.0 269.6,1637.0 H190.0 Z"><title>349be3ad · auto: 10.9s — 2841 prompt / 299 completion tok</title></path>
<text class="val" x="279.6" y="1634.0">10.9s</text>
<text class="lbl" x="182" y="1658.0" text-anchor="end">09a3f580 · inpatient</text>
<path class="s1" d="M190.0,1647.0 H269.6 Q273.6,1647.0 273.6,1651.0 V1657.0 Q273.6,1661.0 269.6,1661.0 H190.0 Z"><title>09a3f580 · inpatient: 10.9s — 3128 prompt / 335 completion tok</title></path>
<text class="val" x="279.6" y="1658.0">10.9s</text>
<text class="lbl" x="182" y="1682.0" text-anchor="end">7263b6c6 · auto</text>
<path class="s1" d="M190.0,1671.0 H268.8 Q272.8,1671.0 272.8,1675.0 V1681.0 Q272.8,1685.0 268.8,1685.0 H190.0 Z"><title>7263b6c6 · auto: 10.8s — 2848 prompt / 284 completion tok</title></path>
<text class="val" x="278.8" y="1682.0">10.8s</text>
<text class="lbl" x="182" y="1706.0" text-anchor="end">1ecf4a8a · auto</text>
<path class="s1" d="M190.0,1695.0 H268.8 Q272.8,1695.0 272.8,1699.0 V1705.0 Q272.8,1709.0 268.8,1709.0 H190.0 Z"><title>1ecf4a8a · auto: 10.8s — 2839 prompt / 304 completion tok</title></path>
<text class="val" x="278.8" y="1706.0">10.8s</text>
<text class="lbl" x="182" y="1730.0" text-anchor="end">4cb64a38 · auto</text>
<path class="s1" d="M190.0,1719.0 H267.3 Q271.3,1719.0 271.3,1723.0 V1729.0 Q271.3,1733.0 267.3,1733.0 H190.0 Z"><title>4cb64a38 · auto: 10.6s — 2843 prompt / 274 completion tok</title></path>
<text class="val" x="277.3" y="1730.0">10.6s</text>
<text class="lbl" x="182" y="1754.0" text-anchor="end">e786bd0e · auto</text>
<path class="s1" d="M190.0,1743.0 H267.3 Q271.3,1743.0 271.3,1747.0 V1753.0 Q271.3,1757.0 267.3,1757.0 H190.0 Z"><title>e786bd0e · auto: 10.6s — 2841 prompt / 290 completion tok</title></path>
<text class="val" x="277.3" y="1754.0">10.6s</text>
<text class="lbl" x="182" y="1778.0" text-anchor="end">05c2b791 · auto</text>
<path class="s1" d="M190.0,1767.0 H264.2 Q268.2,1767.0 268.2,1771.0 V1777.0 Q268.2,1781.0 264.2,1781.0 H190.0 Z"><title>05c2b791 · auto: 10.2s — 2843 prompt / 273 completion tok</title></path>
<text class="val" x="274.2" y="1778.0">10.2s</text>
<text class="lbl" x="182" y="1802.0" text-anchor="end">18431923 · auto</text>
<path class="s1" d="M190.0,1791.0 H262.7 Q266.7,1791.0 266.7,1795.0 V1801.0 Q266.7,1805.0 262.7,1805.0 H190.0 Z"><title>18431923 · auto: 10.0s — 2836 prompt / 273 completion tok</title></path>
<text class="val" x="272.7" y="1802.0">10.0s</text>
<text class="lbl" x="182" y="1826.0" text-anchor="end">a873ca59 · auto</text>
<path class="s1" d="M190.0,1815.0 H258.8 Q262.8,1815.0 262.8,1819.0 V1825.0 Q262.8,1829.0 258.8,1829.0 H190.0 Z"><title>a873ca59 · auto: 9.5s — 2840 prompt / 271 completion tok</title></path>
<text class="val" x="268.8" y="1826.0">9.5s</text>
<text class="lbl" x="182" y="1850.0" text-anchor="end">2b6142ed · auto</text>
<path class="s1" d="M190.0,1839.0 H256.5 Q260.5,1839.0 260.5,1843.0 V1849.0 Q260.5,1853.0 256.5,1853.0 H190.0 Z"><title>2b6142ed · auto: 9.2s — 2848 prompt / 287 completion tok</title></path>
<text class="val" x="266.5" y="1850.0">9.2s</text>
</svg>