<svg xmlns="http://www.w3.org/2000/svg" class="viz" viewBox="0 0 720 260" width="720" height="260" role="img" aria-label="Mean overall extraction score by subclass · sand032-s2b-corr100-2rep">

<style>
  .viz { font-family: system-ui, -apple-system, "Segoe UI", sans-serif;
    --surface:#fcfcfb; --ink:#0b0b0b; --ink2:#52514e; --muted:#898781;
    --grid:#e1e0d9; --axis:#c3c2b7; --s1:#2a78d6; --s2:#eb6834; --deemph:#c3c2b7;
    --good:#0ca30c; --critical:#d03b3b; }
  @media (prefers-color-scheme: dark) {
    .viz { --surface:#1a1a19; --ink:#ffffff; --ink2:#c3c2b7; --muted:#898781;
      --grid:#2c2c2a; --axis:#383835; --s1:#3987e5; --s2:#d95926; --deemph:#52514e; }
  }
  .viz .bg { fill: var(--surface); }
  .viz .title { fill: var(--ink); font-size: 15px; font-weight: 600; }
  .viz .sub { fill: var(--ink2); font-size: 12px; }
  .viz .lbl { fill: var(--ink2); font-size: 12px; }
  .viz .val { fill: var(--ink); font-size: 12px; font-variant-numeric: tabular-nums;
    paint-order: stroke; stroke: var(--surface); stroke-width: 4px; stroke-linejoin: round; }
  .viz .reflbl { paint-order: stroke; stroke: var(--surface); stroke-width: 3px; }
  .viz .tick { fill: var(--muted); font-size: 11px; font-variant-numeric: tabular-nums; }
  .viz .grid { stroke: var(--grid); stroke-width: 1; }
  .viz .axis { stroke: var(--axis); stroke-width: 1; }
  .viz .ref { stroke: var(--ink2); stroke-width: 1; }
  .viz .reflbl { fill: var(--ink2); font-size: 11px; }
  .viz .s1 { fill: var(--s1); } .viz .s2 { fill: var(--s2); }
  .viz .ln1 { stroke: var(--s1); } .viz .ln2 { stroke: var(--s2); }
  .viz .deemph { fill: var(--deemph); }
  .viz .conn { stroke: var(--axis); stroke-width: 2; }
  .viz .ring { stroke: var(--surface); stroke-width: 2; }
</style>

<rect class="bg" width="720" height="260" rx="8"/>
<text class="title" x="16" y="24">Mean overall extraction score by subclass · sand032-s2b-corr100-2rep</text>
<text class="sub" x="16" y="42">overall mean 0.2966 across 100 docs (0–1, higher is better)</text>
<line class="grid" x1="190.0" y1="54" x2="190.0" y2="226"/>
<text class="tick" x="190.0" y="242" text-anchor="middle">0</text>
<line class="grid" x1="343.3" y1="54" x2="343.3" y2="226"/>
<text class="tick" x="343.3" y="242" text-anchor="middle">0.2</text>
<line class="grid" x1="496.7" y1="54" x2="496.7" y2="226"/>
<text class="tick" x="496.7" y="242" text-anchor="middle">0.4</text>
<line class="grid" x1="650.0" y1="54" x2="650.0" y2="226"/>
<text class="tick" x="650.0" y="242" text-anchor="middle">0.6</text>
<line class="axis" x1="190" y1="54" x2="190" y2="226"/>
<text class="lbl" x="182" y="74.0" text-anchor="end">meeting_request (n=2)</text>
<path class="s1" d="M190.0,63.0 H555.5 Q559.5,63.0 559.5,67.0 V73.0 Q559.5,77.0 555.5,77.0 H190.0 Z"><title>meeting_request (n=2): 0.482</title></path>
<text class="val" x="565.5" y="74.0">0.482</text>
<text class="lbl" x="182" y="98.0" text-anchor="end">notice (n=8)</text>
<path class="s1" d="M190.0,87.0 H489.6 Q493.6,87.0 493.6,91.0 V97.0 Q493.6,101.0 489.6,101.0 H190.0 Z"><title>notice (n=8): 0.396</title></path>
<text class="val" x="499.6" y="98.0">0.396</text>
<text class="lbl" x="182" y="122.0" text-anchor="end">demand (n=9)</text>
<path class="s1" d="M190.0,111.0 H465.8 Q469.8,111.0 469.8,115.0 V121.0 Q469.8,125.0 465.8,125.0 H190.0 Z"><title>demand (n=9): 0.365</title></path>
<text class="val" x="475.8" y="122.0">0.365</text>
<text class="lbl" x="182" y="146.0" text-anchor="end">memo (n=11)</text>
<path class="s1" d="M190.0,135.0 H430.6 Q434.6,135.0 434.6,139.0 V145.0 Q434.6,149.0 430.6,149.0 H190.0 Z"><title>memo (n=11): 0.319</title></path>
<text class="val" x="440.6" y="146.0">0.319</text>
<text class="lbl" x="182" y="170.0" text-anchor="end">press_release (n=7)</text>
<path class="s1" d="M190.0,159.0 H410.6 Q414.6,159.0 414.6,163.0 V169.0 Q414.6,173.0 410.6,173.0 H190.0 Z"><title>press_release (n=7): 0.293</title></path>
<text class="val" x="420.6" y="170.0">0.293</text>
<text class="lbl" x="182" y="194.0" text-anchor="end">letter (n=9)</text>
<path class="s1" d="M190.0,183.0 H399.1 Q403.1,183.0 403.1,187.0 V193.0 Q403.1,197.0 399.1,197.0 H190.0 Z"><title>letter (n=9): 0.278</title></path>
<text class="val" x="409.1" y="194.0">0.278</text>
<text class="lbl" x="182" y="218.0" text-anchor="end">email (n=54)</text>
<path class="s1" d="M190.0,207.0 H387.6 Q391.6,207.0 391.6,211.0 V217.0 Q391.6,221.0 387.6,221.0 H190.0 Z"><title>email (n=54): 0.263</title></path>
<text class="val" x="397.6" y="218.0">0.263</text>
</svg>