<svg xmlns="http://www.w3.org/2000/svg" class="viz" viewBox="0 0 720 260" width="720" height="260" role="img" aria-label="Mean overall extraction score by subclass · sand032-s10-corr75-v2">

<style>
  .viz { font-family: system-ui, -apple-system, "Segoe UI", sans-serif;
    --surface:#fcfcfb; --ink:#0b0b0b; --ink2:#52514e; --muted:#898781;
    --grid:#e1e0d9; --axis:#c3c2b7; --s1:#2a78d6; --s2:#eb6834; --deemph:#c3c2b7;
    --good:#0ca30c; --critical:#d03b3b; }
  @media (prefers-color-scheme: dark) {
    .viz { --surface:#1a1a19; --ink:#ffffff; --ink2:#c3c2b7; --muted:#898781;
      --grid:#2c2c2a; --axis:#383835; --s1:#3987e5; --s2:#d95926; --deemph:#52514e; }
  }
  .viz .bg { fill: var(--surface); }
  .viz .title { fill: var(--ink); font-size: 15px; font-weight: 600; }
  .viz .sub { fill: var(--ink2); font-size: 12px; }
  .viz .lbl { fill: var(--ink2); font-size: 12px; }
  .viz .val { fill: var(--ink); font-size: 12px; font-variant-numeric: tabular-nums;
    paint-order: stroke; stroke: var(--surface); stroke-width: 4px; stroke-linejoin: round; }
  .viz .reflbl { paint-order: stroke; stroke: var(--surface); stroke-width: 3px; }
  .viz .tick { fill: var(--muted); font-size: 11px; font-variant-numeric: tabular-nums; }
  .viz .grid { stroke: var(--grid); stroke-width: 1; }
  .viz .axis { stroke: var(--axis); stroke-width: 1; }
  .viz .ref { stroke: var(--ink2); stroke-width: 1; }
  .viz .reflbl { fill: var(--ink2); font-size: 11px; }
  .viz .s1 { fill: var(--s1); } .viz .s2 { fill: var(--s2); }
  .viz .ln1 { stroke: var(--s1); } .viz .ln2 { stroke: var(--s2); }
  .viz .deemph { fill: var(--deemph); }
  .viz .conn { stroke: var(--axis); stroke-width: 2; }
  .viz .ring { stroke: var(--surface); stroke-width: 2; }
</style>

<rect class="bg" width="720" height="260" rx="8"/>
<text class="title" x="16" y="24">Mean overall extraction score by subclass · sand032-s10-corr75-v2</text>
<text class="sub" x="16" y="42">overall mean 0.3446 across 75 docs (0–1, higher is better)</text>
<line class="grid" x1="190.0" y1="54" x2="190.0" y2="226"/>
<text class="tick" x="190.0" y="242" text-anchor="middle">0</text>
<line class="grid" x1="305.0" y1="54" x2="305.0" y2="226"/>
<text class="tick" x="305.0" y="242" text-anchor="middle">0.2</text>
<line class="grid" x1="420.0" y1="54" x2="420.0" y2="226"/>
<text class="tick" x="420.0" y="242" text-anchor="middle">0.4</text>
<line class="grid" x1="535.0" y1="54" x2="535.0" y2="226"/>
<text class="tick" x="535.0" y="242" text-anchor="middle">0.6</text>
<line class="grid" x1="650.0" y1="54" x2="650.0" y2="226"/>
<text class="tick" x="650.0" y="242" text-anchor="middle">0.8</text>
<line class="axis" x1="190" y1="54" x2="190" y2="226"/>
<text class="lbl" x="182" y="74.0" text-anchor="end">meeting_request (n=1)</text>
<path class="s1" d="M190.0,63.0 H569.4 Q573.4,63.0 573.4,67.0 V73.0 Q573.4,77.0 569.4,77.0 H190.0 Z"><title>meeting_request (n=1): 0.667</title></path>
<text class="val" x="579.4" y="74.0">0.667</text>
<text class="lbl" x="182" y="98.0" text-anchor="end">notice (n=7)</text>
<path class="s1" d="M190.0,87.0 H464.1 Q468.1,87.0 468.1,91.0 V97.0 Q468.1,101.0 464.1,101.0 H190.0 Z"><title>notice (n=7): 0.484</title></path>
<text class="val" x="474.1" y="98.0">0.484</text>
<text class="lbl" x="182" y="122.0" text-anchor="end">press_release (n=7)</text>
<path class="s1" d="M190.0,111.0 H434.1 Q438.1,111.0 438.1,115.0 V121.0 Q438.1,125.0 434.1,125.0 H190.0 Z"><title>press_release (n=7): 0.431</title></path>
<text class="val" x="444.1" y="122.0">0.431</text>
<text class="lbl" x="182" y="146.0" text-anchor="end">letter (n=6)</text>
<path class="s1" d="M190.0,135.0 H397.0 Q401.0,135.0 401.0,139.0 V145.0 Q401.0,149.0 397.0,149.0 H190.0 Z"><title>letter (n=6): 0.367</title></path>
<text class="val" x="407.0" y="146.0">0.367</text>
<text class="lbl" x="182" y="170.0" text-anchor="end">email (n=40)</text>
<path class="s1" d="M190.0,159.0 H364.3 Q368.3,159.0 368.3,163.0 V169.0 Q368.3,173.0 364.3,173.0 H190.0 Z"><title>email (n=40): 0.310</title></path>
<text class="val" x="374.3" y="170.0">0.310</text>
<text class="lbl" x="182" y="194.0" text-anchor="end">memo (n=9)</text>
<path class="s1" d="M190.0,183.0 H358.5 Q362.5,183.0 362.5,187.0 V193.0 Q362.5,197.0 358.5,197.0 H190.0 Z"><title>memo (n=9): 0.300</title></path>
<text class="val" x="368.5" y="194.0">0.300</text>
<text class="lbl" x="182" y="218.0" text-anchor="end">demand (n=5)</text>
<path class="s1" d="M190.0,207.0 H354.3 Q358.3,207.0 358.3,211.0 V217.0 Q358.3,221.0 354.3,221.0 H190.0 Z"><title>demand (n=5): 0.293</title></path>
<text class="val" x="364.3" y="218.0">0.293</text>
</svg>