<svg xmlns="http://www.w3.org/2000/svg" class="viz" viewBox="0 0 720 572" width="720" height="572" role="img" aria-label="Per-document latency · sand032-l1-nothink">

<style>
  .viz { font-family: system-ui, -apple-system, "Segoe UI", sans-serif;
    --surface:#fcfcfb; --ink:#0b0b0b; --ink2:#52514e; --muted:#898781;
    --grid:#e1e0d9; --axis:#c3c2b7; --s1:#2a78d6; --s2:#eb6834; --deemph:#c3c2b7;
    --good:#0ca30c; --critical:#d03b3b; }
  @media (prefers-color-scheme: dark) {
    .viz { --surface:#1a1a19; --ink:#ffffff; --ink2:#c3c2b7; --muted:#898781;
      --grid:#2c2c2a; --axis:#383835; --s1:#3987e5; --s2:#d95926; --deemph:#52514e; }
  }
  .viz .bg { fill: var(--surface); }
  .viz .title { fill: var(--ink); font-size: 15px; font-weight: 600; }
  .viz .sub { fill: var(--ink2); font-size: 12px; }
  .viz .lbl { fill: var(--ink2); font-size: 12px; }
  .viz .val { fill: var(--ink); font-size: 12px; font-variant-numeric: tabular-nums;
    paint-order: stroke; stroke: var(--surface); stroke-width: 4px; stroke-linejoin: round; }
  .viz .reflbl { paint-order: stroke; stroke: var(--surface); stroke-width: 3px; }
  .viz .tick { fill: var(--muted); font-size: 11px; font-variant-numeric: tabular-nums; }
  .viz .grid { stroke: var(--grid); stroke-width: 1; }
  .viz .axis { stroke: var(--axis); stroke-width: 1; }
  .viz .ref { stroke: var(--ink2); stroke-width: 1; }
  .viz .reflbl { fill: var(--ink2); font-size: 11px; }
  .viz .s1 { fill: var(--s1); } .viz .s2 { fill: var(--s2); }
  .viz .ln1 { stroke: var(--s1); } .viz .ln2 { stroke: var(--s2); }
  .viz .deemph { fill: var(--deemph); }
  .viz .conn { stroke: var(--axis); stroke-width: 2; }
  .viz .ring { stroke: var(--surface); stroke-width: 2; }
</style>

<rect class="bg" width="720" height="572" rx="8"/>
<text class="title" x="16" y="24">Per-document latency · sand032-l1-nothink</text>
<text class="sub" x="16" y="42">20 docs, slowest first · c8 on 1×L4 · wall 26.5s</text>
<line class="grid" x1="190.0" y1="54" x2="190.0" y2="538"/>
<text class="tick" x="190.0" y="554" text-anchor="middle">0s</text>
<line class="grid" x1="305.0" y1="54" x2="305.0" y2="538"/>
<text class="tick" x="305.0" y="554" text-anchor="middle">5s</text>
<line class="grid" x1="420.0" y1="54" x2="420.0" y2="538"/>
<text class="tick" x="420.0" y="554" text-anchor="middle">10s</text>
<line class="grid" x1="535.0" y1="54" x2="535.0" y2="538"/>
<text class="tick" x="535.0" y="554" text-anchor="middle">15s</text>
<line class="grid" x1="650.0" y1="54" x2="650.0" y2="538"/>
<text class="tick" x="650.0" y="554" text-anchor="middle">20s</text>
<line class="axis" x1="190" y1="54" x2="190" y2="538"/>
<line class="ref" x1="374.0" y1="50" x2="374.0" y2="538"/>
<text class="reflbl" x="378.0" y="48">p50 8.0s</text>
<line class="ref" x1="459.1" y1="50" x2="459.1" y2="538"/>
<text class="reflbl" x="463.1" y="48">p95 11.7s</text>
<text class="lbl" x="182" y="74.0" text-anchor="end">dda97989 · memo</text>
<path class="s1" d="M190.0,63.0 H593.1 Q597.1,63.0 597.1,67.0 V73.0 Q597.1,77.0 593.1,77.0 H190.0 Z"><title>dda97989 · memo: 17.7s — 2075 prompt / 269 completion tok</title></path>
<text class="val" x="603.1" y="74.0">17.7s</text>
<text class="lbl" x="182" y="98.0" text-anchor="end">a9c1351e · press_release</text>
<path class="s1" d="M190.0,87.0 H455.1 Q459.1,87.0 459.1,91.0 V97.0 Q459.1,101.0 455.1,101.0 H190.0 Z"><title>a9c1351e · press_release: 11.7s — 1707 prompt / 114 completion tok</title></path>
<text class="val" x="465.1" y="98.0">11.7s</text>
<text class="lbl" x="182" y="122.0" text-anchor="end">0c70b02b · memo</text>
<path class="s1" d="M190.0,111.0 H443.6 Q447.6,111.0 447.6,115.0 V121.0 Q447.6,125.0 443.6,125.0 H190.0 Z"><title>0c70b02b · memo: 11.2s — 2206 prompt / 227 completion tok</title></path>
<text class="val" x="453.6" y="122.0">11.2s</text>
<text class="lbl" x="182" y="146.0" text-anchor="end">b1514bec · notice</text>
<path class="s1" d="M190.0,135.0 H441.3 Q445.3,135.0 445.3,139.0 V145.0 Q445.3,149.0 441.3,149.0 H190.0 Z"><title>b1514bec · notice: 11.1s — 1913 prompt / 220 completion tok</title></path>
<text class="val" x="451.3" y="146.0">11.1s</text>
<text class="lbl" x="182" y="170.0" text-anchor="end">bf0e601a · email</text>
<path class="s1" d="M190.0,159.0 H432.1 Q436.1,159.0 436.1,163.0 V169.0 Q436.1,173.0 432.1,173.0 H190.0 Z"><title>bf0e601a · email: 10.7s — 2025 prompt / 199 completion tok</title></path>
<text class="val" x="442.1" y="170.0">10.7s</text>
<text class="lbl" x="182" y="194.0" text-anchor="end">205d564b · email</text>
<path class="s1" d="M190.0,183.0 H416.0 Q420.0,183.0 420.0,187.0 V193.0 Q420.0,197.0 416.0,197.0 H190.0 Z"><title>205d564b · email: 10.0s — 1894 prompt / 171 completion tok</title></path>
<text class="val" x="426.0" y="194.0">10.0s</text>
<text class="lbl" x="182" y="218.0" text-anchor="end">72273528 · email</text>
<path class="s1" d="M190.0,207.0 H411.4 Q415.4,207.0 415.4,211.0 V217.0 Q415.4,221.0 411.4,221.0 H190.0 Z"><title>72273528 · email: 9.8s — 2028 prompt / 178 completion tok</title></path>
<text class="val" x="421.4" y="218.0">9.8s</text>
<text class="lbl" x="182" y="242.0" text-anchor="end">0b363d3e · letter</text>
<path class="s1" d="M190.0,231.0 H395.3 Q399.3,231.0 399.3,235.0 V241.0 Q399.3,245.0 395.3,245.0 H190.0 Z"><title>0b363d3e · letter: 9.1s — 1996 prompt / 160 completion tok</title></path>
<text class="val" x="405.3" y="242.0">9.1s</text>
<text class="lbl" x="182" y="266.0" text-anchor="end">e32f0d3b · notice</text>
<path class="s1" d="M190.0,255.0 H386.1 Q390.1,255.0 390.1,259.0 V265.0 Q390.1,269.0 386.1,269.0 H190.0 Z"><title>e32f0d3b · notice: 8.7s — 1976 prompt / 183 completion tok</title></path>
<text class="val" x="396.1" y="266.0">8.7s</text>
<text class="lbl" x="182" y="290.0" text-anchor="end">ef21747b · email</text>
<path class="s1" d="M190.0,279.0 H372.3 Q376.3,279.0 376.3,283.0 V289.0 Q376.3,293.0 372.3,293.0 H190.0 Z"><title>ef21747b · email: 8.1s — 1954 prompt / 159 completion tok</title></path>
<text class="val" x="382.3" y="290.0">8.1s</text>
<text class="lbl" x="182" y="314.0" text-anchor="end">b727a0d4 · email</text>
<path class="s1" d="M190.0,303.0 H370.0 Q374.0,303.0 374.0,307.0 V313.0 Q374.0,317.0 370.0,317.0 H190.0 Z"><title>b727a0d4 · email: 8.0s — 1779 prompt / 134 completion tok</title></path>
<text class="val" x="380.0" y="314.0">8.0s</text>
<text class="lbl" x="182" y="338.0" text-anchor="end">ccb52f44 · email</text>
<path class="s1" d="M190.0,327.0 H365.4 Q369.4,327.0 369.4,331.0 V337.0 Q369.4,341.0 365.4,341.0 H190.0 Z"><title>ccb52f44 · email: 7.8s — 1739 prompt / 154 completion tok</title></path>
<text class="val" x="375.4" y="338.0">7.8s</text>
<text class="lbl" x="182" y="362.0" text-anchor="end">6d7e6348 · memo</text>
<path class="s1" d="M190.0,351.0 H356.2 Q360.2,351.0 360.2,355.0 V361.0 Q360.2,365.0 356.2,365.0 H190.0 Z"><title>6d7e6348 · memo: 7.4s — 1806 prompt / 161 completion tok</title></path>
<text class="val" x="366.2" y="362.0">7.4s</text>
<text class="lbl" x="182" y="386.0" text-anchor="end">6ecfecc3 · email</text>
<path class="s1" d="M190.0,375.0 H353.9 Q357.9,375.0 357.9,379.0 V385.0 Q357.9,389.0 353.9,389.0 H190.0 Z"><title>6ecfecc3 · email: 7.3s — 1729 prompt / 143 completion tok</title></path>
<text class="val" x="363.9" y="386.0">7.3s</text>
<text class="lbl" x="182" y="410.0" text-anchor="end">c826ad07 · email</text>
<path class="s1" d="M190.0,399.0 H353.9 Q357.9,399.0 357.9,403.0 V409.0 Q357.9,413.0 353.9,413.0 H190.0 Z"><title>c826ad07 · email: 7.3s — 1685 prompt / 115 completion tok</title></path>
<text class="val" x="363.9" y="410.0">7.3s</text>
<text class="lbl" x="182" y="434.0" text-anchor="end">ed293da4 · memo</text>
<path class="s1" d="M190.0,423.0 H353.9 Q357.9,423.0 357.9,427.0 V433.0 Q357.9,437.0 353.9,437.0 H190.0 Z"><title>ed293da4 · memo: 7.3s — 1698 prompt / 109 completion tok</title></path>
<text class="val" x="363.9" y="434.0">7.3s</text>
<text class="lbl" x="182" y="458.0" text-anchor="end">b08f097e · memo</text>
<path class="s1" d="M190.0,447.0 H326.3 Q330.3,447.0 330.3,451.0 V457.0 Q330.3,461.0 326.3,461.0 H190.0 Z"><title>b08f097e · memo: 6.1s — 1724 prompt / 134 completion tok</title></path>
<text class="val" x="336.3" y="458.0">6.1s</text>
<text class="lbl" x="182" y="482.0" text-anchor="end">8f2c06e0 · email</text>
<path class="s1" d="M190.0,471.0 H321.7 Q325.7,471.0 325.7,475.0 V481.0 Q325.7,485.0 321.7,485.0 H190.0 Z"><title>8f2c06e0 · email: 5.9s — 1936 prompt / 134 completion tok</title></path>
<text class="val" x="331.7" y="482.0">5.9s</text>
<text class="lbl" x="182" y="506.0" text-anchor="end">ed14e557 · email</text>
<path class="s1" d="M190.0,495.0 H296.4 Q300.4,495.0 300.4,499.0 V505.0 Q300.4,509.0 296.4,509.0 H190.0 Z"><title>ed14e557 · email: 4.8s — 1674 prompt / 76 completion tok</title></path>
<text class="val" x="306.4" y="506.0">4.8s</text>
<text class="lbl" x="182" y="530.0" text-anchor="end">3cb1d34e · email</text>
<path class="s1" d="M190.0,519.0 H291.8 Q295.8,519.0 295.8,523.0 V529.0 Q295.8,533.0 291.8,533.0 H190.0 Z"><title>3cb1d34e · email: 4.6s — 1668 prompt / 87 completion tok</title></path>
<text class="val" x="301.8" y="530.0">4.6s</text>
</svg>