<svg xmlns="http://www.w3.org/2000/svg" class="viz" viewBox="0 0 720 2492" width="720" height="2492" role="img" aria-label="Per-document latency · sand032-s9-corr100-bal">

<style>
  .viz { font-family: system-ui, -apple-system, "Segoe UI", sans-serif;
    --surface:#fcfcfb; --ink:#0b0b0b; --ink2:#52514e; --muted:#898781;
    --grid:#e1e0d9; --axis:#c3c2b7; --s1:#2a78d6; --s2:#eb6834; --deemph:#c3c2b7;
    --good:#0ca30c; --critical:#d03b3b; }
  @media (prefers-color-scheme: dark) {
    .viz { --surface:#1a1a19; --ink:#ffffff; --ink2:#c3c2b7; --muted:#898781;
      --grid:#2c2c2a; --axis:#383835; --s1:#3987e5; --s2:#d95926; --deemph:#52514e; }
  }
  .viz .bg { fill: var(--surface); }
  .viz .title { fill: var(--ink); font-size: 15px; font-weight: 600; }
  .viz .sub { fill: var(--ink2); font-size: 12px; }
  .viz .lbl { fill: var(--ink2); font-size: 12px; }
  .viz .val { fill: var(--ink); font-size: 12px; font-variant-numeric: tabular-nums;
    paint-order: stroke; stroke: var(--surface); stroke-width: 4px; stroke-linejoin: round; }
  .viz .reflbl { paint-order: stroke; stroke: var(--surface); stroke-width: 3px; }
  .viz .tick { fill: var(--muted); font-size: 11px; font-variant-numeric: tabular-nums; }
  .viz .grid { stroke: var(--grid); stroke-width: 1; }
  .viz .axis { stroke: var(--axis); stroke-width: 1; }
  .viz .ref { stroke: var(--ink2); stroke-width: 1; }
  .viz .reflbl { fill: var(--ink2); font-size: 11px; }
  .viz .s1 { fill: var(--s1); } .viz .s2 { fill: var(--s2); }
  .viz .ln1 { stroke: var(--s1); } .viz .ln2 { stroke: var(--s2); }
  .viz .deemph { fill: var(--deemph); }
  .viz .conn { stroke: var(--axis); stroke-width: 2; }
  .viz .ring { stroke: var(--surface); stroke-width: 2; }
</style>

<rect class="bg" width="720" height="2492" rx="8"/>
<text class="title" x="16" y="24">Per-document latency · sand032-s9-corr100-bal</text>
<text class="sub" x="16" y="42">100 docs, slowest first · c64 on 2×L4 · wall 39.0s</text>
<line class="grid" x1="190.0" y1="54" x2="190.0" y2="2458"/>
<text class="tick" x="190.0" y="2474" text-anchor="middle">0s</text>
<line class="grid" x1="305.0" y1="54" x2="305.0" y2="2458"/>
<text class="tick" x="305.0" y="2474" text-anchor="middle">10s</text>
<line class="grid" x1="420.0" y1="54" x2="420.0" y2="2458"/>
<text class="tick" x="420.0" y="2474" text-anchor="middle">20s</text>
<line class="grid" x1="535.0" y1="54" x2="535.0" y2="2458"/>
<text class="tick" x="535.0" y="2474" text-anchor="middle">30s</text>
<line class="grid" x1="650.0" y1="54" x2="650.0" y2="2458"/>
<text class="tick" x="650.0" y="2474" text-anchor="middle">40s</text>
<line class="axis" x1="190" y1="54" x2="190" y2="2458"/>
<line class="ref" x1="433.8" y1="50" x2="433.8" y2="2458"/>
<text class="reflbl" x="437.8" y="48">p50 21.2s</text>
<line class="ref" x1="539.6" y1="50" x2="539.6" y2="2458"/>
<text class="reflbl" x="543.6" y="48">p95 30.4s</text>
<text class="lbl" x="182" y="74.0" text-anchor="end">a3f9a41e · email</text>
<path class="s1" d="M190.0,63.0 H633.3 Q637.3,63.0 637.3,67.0 V73.0 Q637.3,77.0 633.3,77.0 H190.0 Z"><title>a3f9a41e · email: 38.9s — 3117 prompt / 624 completion tok</title></path>
<text class="val" x="643.3" y="74.0">38.9s</text>
<text class="lbl" x="182" y="98.0" text-anchor="end">e2533866 · press_release</text>
<path class="s1" d="M190.0,87.0 H593.1 Q597.1,87.0 597.1,91.0 V97.0 Q597.1,101.0 593.1,101.0 H190.0 Z"><title>e2533866 · press_release: 35.4s — 2068 prompt / 446 completion tok</title></path>
<text class="val" x="603.1" y="98.0">35.4s</text>
<text class="lbl" x="182" y="122.0" text-anchor="end">54e46f1f · email</text>
<path class="s1" d="M190.0,111.0 H587.3 Q591.3,111.0 591.3,115.0 V121.0 Q591.3,125.0 587.3,125.0 H190.0 Z"><title>54e46f1f · email: 34.9s — 2833 prompt / 456 completion tok</title></path>
<text class="val" x="597.3" y="122.0">34.9s</text>
<text class="lbl" x="182" y="146.0" text-anchor="end">23ccb915 · press_release</text>
<path class="s1" d="M190.0,135.0 H573.5 Q577.5,135.0 577.5,139.0 V145.0 Q577.5,149.0 573.5,149.0 H190.0 Z"><title>23ccb915 · press_release: 33.7s — 4363 prompt / 381 completion tok</title></path>
<text class="val" x="583.5" y="146.0">33.7s</text>
<text class="lbl" x="182" y="170.0" text-anchor="end">fa0fbd19 · email</text>
<path class="s1" d="M190.0,159.0 H544.8 Q548.8,159.0 548.8,163.0 V169.0 Q548.8,173.0 544.8,173.0 H190.0 Z"><title>fa0fbd19 · email: 31.2s — 3834 prompt / 285 completion tok</title></path>
<text class="val" x="554.8" y="170.0">31.2s</text>
<text class="lbl" x="182" y="194.0" text-anchor="end">823e53f5 · memo</text>
<path class="s1" d="M190.0,183.0 H535.6 Q539.6,183.0 539.6,187.0 V193.0 Q539.6,197.0 535.6,197.0 H190.0 Z"><title>823e53f5 · memo: 30.4s — 2386 prompt / 270 completion tok</title></path>
<text class="val" x="545.6" y="194.0">30.4s</text>
<text class="lbl" x="182" y="218.0" text-anchor="end">5ec6defb · email</text>
<path class="s1" d="M190.0,207.0 H534.5 Q538.5,207.0 538.5,211.0 V217.0 Q538.5,221.0 534.5,221.0 H190.0 Z"><title>5ec6defb · email: 30.3s — 3002 prompt / 266 completion tok</title></path>
<text class="val" x="544.5" y="218.0">30.3s</text>
<text class="lbl" x="182" y="242.0" text-anchor="end">dda97989 · memo</text>
<path class="s1" d="M190.0,231.0 H534.5 Q538.5,231.0 538.5,235.0 V241.0 Q538.5,245.0 534.5,245.0 H190.0 Z"><title>dda97989 · memo: 30.3s — 2075 prompt / 257 completion tok</title></path>
<text class="val" x="544.5" y="242.0">30.3s</text>
<text class="lbl" x="182" y="266.0" text-anchor="end">a08d306b · notice</text>
<path class="s1" d="M190.0,255.0 H533.3 Q537.3,255.0 537.3,259.0 V265.0 Q537.3,269.0 533.3,269.0 H190.0 Z"><title>a08d306b · notice: 30.2s — 2439 prompt / 254 completion tok</title></path>
<text class="val" x="543.3" y="266.0">30.2s</text>
<text class="lbl" x="182" y="290.0" text-anchor="end">b90c8c92 · memo</text>
<path class="s1" d="M190.0,279.0 H528.7 Q532.7,279.0 532.7,283.0 V289.0 Q532.7,293.0 528.7,293.0 H190.0 Z"><title>b90c8c92 · memo: 29.8s — 2541 prompt / 178 completion tok</title></path>
<text class="val" x="538.7" y="290.0">29.8s</text>
<text class="lbl" x="182" y="314.0" text-anchor="end">b702fd84 · memo</text>
<path class="s1" d="M190.0,303.0 H525.2 Q529.2,303.0 529.2,307.0 V313.0 Q529.2,317.0 525.2,317.0 H190.0 Z"><title>b702fd84 · memo: 29.5s — 2158 prompt / 239 completion tok</title></path>
<text class="val" x="535.2" y="314.0">29.5s</text>
<text class="lbl" x="182" y="338.0" text-anchor="end">78525d0f · email</text>
<path class="s1" d="M190.0,327.0 H518.3 Q522.3,327.0 522.3,331.0 V337.0 Q522.3,341.0 518.3,341.0 H190.0 Z"><title>78525d0f · email: 28.9s — 2243 prompt / 252 completion tok</title></path>
<text class="val" x="528.3" y="338.0">28.9s</text>
<text class="lbl" x="182" y="362.0" text-anchor="end">b9b3f38d · email</text>
<path class="s1" d="M190.0,351.0 H513.8 Q517.8,351.0 517.8,355.0 V361.0 Q517.8,365.0 513.8,365.0 H190.0 Z"><title>b9b3f38d · email: 28.5s — 2628 prompt / 214 completion tok</title></path>
<text class="val" x="523.8" y="362.0">28.5s</text>
<text class="lbl" x="182" y="386.0" text-anchor="end">8f7cb96e · email</text>
<path class="s1" d="M190.0,375.0 H510.3 Q514.3,375.0 514.3,379.0 V385.0 Q514.3,389.0 510.3,389.0 H190.0 Z"><title>8f7cb96e · email: 28.2s — 2137 prompt / 214 completion tok</title></path>
<text class="val" x="520.3" y="386.0">28.2s</text>
<text class="lbl" x="182" y="410.0" text-anchor="end">514f180a · memo</text>
<path class="s1" d="M190.0,399.0 H509.2 Q513.2,399.0 513.2,403.0 V409.0 Q513.2,413.0 509.2,413.0 H190.0 Z"><title>514f180a · memo: 28.1s — 2443 prompt / 205 completion tok</title></path>
<text class="val" x="519.2" y="410.0">28.1s</text>
<text class="lbl" x="182" y="434.0" text-anchor="end">68547e16 · email</text>
<path class="s1" d="M190.0,423.0 H508.0 Q512.0,423.0 512.0,427.0 V433.0 Q512.0,437.0 508.0,437.0 H190.0 Z"><title>68547e16 · email: 28.0s — 2631 prompt / 214 completion tok</title></path>
<text class="val" x="518.0" y="434.0">28.0s</text>
<text class="lbl" x="182" y="458.0" text-anchor="end">67c985bd · email</text>
<path class="s1" d="M190.0,447.0 H506.9 Q510.9,447.0 510.9,451.0 V457.0 Q510.9,461.0 506.9,461.0 H190.0 Z"><title>67c985bd · email: 27.9s — 2149 prompt / 195 completion tok</title></path>
<text class="val" x="516.9" y="458.0">27.9s</text>
<text class="lbl" x="182" y="482.0" text-anchor="end">ac0c2e16 · letter</text>
<path class="s1" d="M190.0,471.0 H504.6 Q508.6,471.0 508.6,475.0 V481.0 Q508.6,485.0 504.6,485.0 H190.0 Z"><title>ac0c2e16 · letter: 27.7s — 3358 prompt / 213 completion tok</title></path>
<text class="val" x="514.5" y="482.0">27.7s</text>
<text class="lbl" x="182" y="506.0" text-anchor="end">7352e63d · demand</text>
<path class="s1" d="M190.0,495.0 H499.9 Q503.9,495.0 503.9,499.0 V505.0 Q503.9,509.0 499.9,509.0 H190.0 Z"><title>7352e63d · demand: 27.3s — 1876 prompt / 203 completion tok</title></path>
<text class="val" x="509.9" y="506.0">27.3s</text>
<text class="lbl" x="182" y="530.0" text-anchor="end">eb0f4289 · letter</text>
<path class="s1" d="M190.0,519.0 H498.8 Q502.8,519.0 502.8,523.0 V529.0 Q502.8,533.0 498.8,533.0 H190.0 Z"><title>eb0f4289 · letter: 27.2s — 1920 prompt / 205 completion tok</title></path>
<text class="val" x="508.8" y="530.0">27.2s</text>
<text class="lbl" x="182" y="554.0" text-anchor="end">20c62dc5 · email</text>
<path class="s1" d="M190.0,543.0 H496.5 Q500.5,543.0 500.5,547.0 V553.0 Q500.5,557.0 496.5,557.0 H190.0 Z"><title>20c62dc5 · email: 27.0s — 1922 prompt / 194 completion tok</title></path>
<text class="val" x="506.5" y="554.0">27.0s</text>
<text class="lbl" x="182" y="578.0" text-anchor="end">e6a787c2 · demand</text>
<path class="s1" d="M190.0,567.0 H495.3 Q499.3,567.0 499.3,571.0 V577.0 Q499.3,581.0 495.3,581.0 H190.0 Z"><title>e6a787c2 · demand: 26.9s — 1790 prompt / 186 completion tok</title></path>
<text class="val" x="505.3" y="578.0">26.9s</text>
<text class="lbl" x="182" y="602.0" text-anchor="end">a45b5c7d · email</text>
<path class="s1" d="M190.0,591.0 H494.2 Q498.2,591.0 498.2,595.0 V601.0 Q498.2,605.0 494.2,605.0 H190.0 Z"><title>a45b5c7d · email: 26.8s — 2506 prompt / 178 completion tok</title></path>
<text class="val" x="504.2" y="602.0">26.8s</text>
<text class="lbl" x="182" y="626.0" text-anchor="end">2da61b35 · notice</text>
<path class="s1" d="M190.0,615.0 H494.2 Q498.2,615.0 498.2,619.0 V625.0 Q498.2,629.0 494.2,629.0 H190.0 Z"><title>2da61b35 · notice: 26.8s — 2129 prompt / 181 completion tok</title></path>
<text class="val" x="504.2" y="626.0">26.8s</text>
<text class="lbl" x="182" y="650.0" text-anchor="end">ee783647 · email</text>
<path class="s1" d="M190.0,639.0 H488.4 Q492.4,639.0 492.4,643.0 V649.0 Q492.4,653.0 488.4,653.0 H190.0 Z"><title>ee783647 · email: 26.3s — 1879 prompt / 188 completion tok</title></path>
<text class="val" x="498.4" y="650.0">26.3s</text>
<text class="lbl" x="182" y="674.0" text-anchor="end">0ea271a4 · email</text>
<path class="s1" d="M190.0,663.0 H488.4 Q492.4,663.0 492.4,667.0 V673.0 Q492.4,677.0 488.4,677.0 H190.0 Z"><title>0ea271a4 · email: 26.3s — 2038 prompt / 186 completion tok</title></path>
<text class="val" x="498.4" y="674.0">26.3s</text>
<text class="lbl" x="182" y="698.0" text-anchor="end">72273528 · email</text>
<path class="s1" d="M190.0,687.0 H486.2 Q490.2,687.0 490.2,691.0 V697.0 Q490.2,701.0 486.2,701.0 H190.0 Z"><title>72273528 · email: 26.1s — 2028 prompt / 178 completion tok</title></path>
<text class="val" x="496.2" y="698.0">26.1s</text>
<text class="lbl" x="182" y="722.0" text-anchor="end">bc08a29c · meeting_request</text>
<path class="s1" d="M190.0,711.0 H483.8 Q487.8,711.0 487.8,715.0 V721.0 Q487.8,725.0 483.8,725.0 H190.0 Z"><title>bc08a29c · meeting_request: 25.9s — 2062 prompt / 169 completion tok</title></path>
<text class="val" x="493.8" y="722.0">25.9s</text>
<text class="lbl" x="182" y="746.0" text-anchor="end">2b2cb0f4 · meeting_request</text>
<path class="s1" d="M190.0,735.0 H482.7 Q486.7,735.0 486.7,739.0 V745.0 Q486.7,749.0 482.7,749.0 H190.0 Z"><title>2b2cb0f4 · meeting_request: 25.8s — 1823 prompt / 190 completion tok</title></path>
<text class="val" x="492.7" y="746.0">25.8s</text>
<text class="lbl" x="182" y="770.0" text-anchor="end">19e46dfb · email</text>
<path class="s1" d="M190.0,759.0 H482.7 Q486.7,759.0 486.7,763.0 V769.0 Q486.7,773.0 482.7,773.0 H190.0 Z"><title>19e46dfb · email: 25.8s — 1742 prompt / 168 completion tok</title></path>
<text class="val" x="492.7" y="770.0">25.8s</text>
<text class="lbl" x="182" y="794.0" text-anchor="end">5411ca8e · demand</text>
<path class="s1" d="M190.0,783.0 H481.5 Q485.5,783.0 485.5,787.0 V793.0 Q485.5,797.0 481.5,797.0 H190.0 Z"><title>5411ca8e · demand: 25.7s — 1934 prompt / 191 completion tok</title></path>
<text class="val" x="491.5" y="794.0">25.7s</text>
<text class="lbl" x="182" y="818.0" text-anchor="end">bf0e601a · email</text>
<path class="s1" d="M190.0,807.0 H479.2 Q483.2,807.0 483.2,811.0 V817.0 Q483.2,821.0 479.2,821.0 H190.0 Z"><title>bf0e601a · email: 25.5s — 2025 prompt / 197 completion tok</title></path>
<text class="val" x="489.2" y="818.0">25.5s</text>
<text class="lbl" x="182" y="842.0" text-anchor="end">4dba6438 · email</text>
<path class="s1" d="M190.0,831.0 H473.5 Q477.5,831.0 477.5,835.0 V841.0 Q477.5,845.0 473.5,845.0 H190.0 Z"><title>4dba6438 · email: 25.0s — 1911 prompt / 172 completion tok</title></path>
<text class="val" x="483.5" y="842.0">25.0s</text>
<text class="lbl" x="182" y="866.0" text-anchor="end">b3f2f7e4 · email</text>
<path class="s1" d="M190.0,855.0 H473.5 Q477.5,855.0 477.5,859.0 V865.0 Q477.5,869.0 473.5,869.0 H190.0 Z"><title>b3f2f7e4 · email: 25.0s — 2263 prompt / 183 completion tok</title></path>
<text class="val" x="483.5" y="866.0">25.0s</text>
<text class="lbl" x="182" y="890.0" text-anchor="end">3112a96e · demand</text>
<path class="s1" d="M190.0,879.0 H471.2 Q475.2,879.0 475.2,883.0 V889.0 Q475.2,893.0 471.2,893.0 H190.0 Z"><title>3112a96e · demand: 24.8s — 1711 prompt / 180 completion tok</title></path>
<text class="val" x="481.2" y="890.0">24.8s</text>
<text class="lbl" x="182" y="914.0" text-anchor="end">0b363d3e · letter</text>
<path class="s1" d="M190.0,903.0 H471.2 Q475.2,903.0 475.2,907.0 V913.0 Q475.2,917.0 471.2,917.0 H190.0 Z"><title>0b363d3e · letter: 24.8s — 1996 prompt / 151 completion tok</title></path>
<text class="val" x="481.2" y="914.0">24.8s</text>
<text class="lbl" x="182" y="938.0" text-anchor="end">ccb52f44 · email</text>
<path class="s1" d="M190.0,927.0 H465.5 Q469.5,927.0 469.5,931.0 V937.0 Q469.5,941.0 465.5,941.0 H190.0 Z"><title>ccb52f44 · email: 24.3s — 1739 prompt / 154 completion tok</title></path>
<text class="val" x="475.5" y="938.0">24.3s</text>
<text class="lbl" x="182" y="962.0" text-anchor="end">c92e7cd8 · press_release</text>
<path class="s1" d="M190.0,951.0 H451.7 Q455.7,951.0 455.7,955.0 V961.0 Q455.7,965.0 451.7,965.0 H190.0 Z"><title>c92e7cd8 · press_release: 23.1s — 2512 prompt / 159 completion tok</title></path>
<text class="val" x="461.7" y="962.0">23.1s</text>
<text class="lbl" x="182" y="986.0" text-anchor="end">db747f3d · demand</text>
<path class="s1" d="M190.0,975.0 H449.4 Q453.4,975.0 453.4,979.0 V985.0 Q453.4,989.0 449.4,989.0 H190.0 Z"><title>db747f3d · demand: 22.9s — 2858 prompt / 163 completion tok</title></path>
<text class="val" x="459.4" y="986.0">22.9s</text>
<text class="lbl" x="182" y="1010.0" text-anchor="end">24439be2 · email</text>
<path class="s1" d="M190.0,999.0 H449.4 Q453.4,999.0 453.4,1003.0 V1009.0 Q453.4,1013.0 449.4,1013.0 H190.0 Z"><title>24439be2 · email: 22.9s — 1793 prompt / 162 completion tok</title></path>
<text class="val" x="459.4" y="1010.0">22.9s</text>
<text class="lbl" x="182" y="1034.0" text-anchor="end">ef21747b · email</text>
<path class="s1" d="M190.0,1023.0 H447.1 Q451.1,1023.0 451.1,1027.0 V1033.0 Q451.1,1037.0 447.1,1037.0 H190.0 Z"><title>ef21747b · email: 22.7s — 1954 prompt / 148 completion tok</title></path>
<text class="val" x="457.1" y="1034.0">22.7s</text>
<text class="lbl" x="182" y="1058.0" text-anchor="end">b01a1a00 · email</text>
<path class="s1" d="M190.0,1047.0 H445.9 Q449.9,1047.0 449.9,1051.0 V1057.0 Q449.9,1061.0 445.9,1061.0 H190.0 Z"><title>b01a1a00 · email: 22.6s — 4829 prompt / 159 completion tok</title></path>
<text class="val" x="455.9" y="1058.0">22.6s</text>
<text class="lbl" x="182" y="1082.0" text-anchor="end">5d9cb557 · letter</text>
<path class="s1" d="M190.0,1071.0 H444.8 Q448.8,1071.0 448.8,1075.0 V1081.0 Q448.8,1085.0 444.8,1085.0 H190.0 Z"><title>5d9cb557 · letter: 22.5s — 1996 prompt / 162 completion tok</title></path>
<text class="val" x="454.8" y="1082.0">22.5s</text>
<text class="lbl" x="182" y="1106.0" text-anchor="end">dccd6e78 · press_release</text>
<path class="s1" d="M190.0,1095.0 H440.1 Q444.1,1095.0 444.1,1099.0 V1105.0 Q444.1,1109.0 440.1,1109.0 H190.0 Z"><title>dccd6e78 · press_release: 22.1s — 1796 prompt / 154 completion tok</title></path>
<text class="val" x="450.1" y="1106.0">22.1s</text>
<text class="lbl" x="182" y="1130.0" text-anchor="end">591edea6 · memo</text>
<path class="s1" d="M190.0,1119.0 H439.0 Q443.0,1119.0 443.0,1123.0 V1129.0 Q443.0,1133.0 439.0,1133.0 H190.0 Z"><title>591edea6 · memo: 22.0s — 1729 prompt / 150 completion tok</title></path>
<text class="val" x="449.0" y="1130.0">22.0s</text>
<text class="lbl" x="182" y="1154.0" text-anchor="end">83e5f7ca · notice</text>
<path class="s1" d="M190.0,1143.0 H436.7 Q440.7,1143.0 440.7,1147.0 V1153.0 Q440.7,1157.0 436.7,1157.0 H190.0 Z"><title>83e5f7ca · notice: 21.8s — 5639 prompt / 147 completion tok</title></path>
<text class="val" x="446.7" y="1154.0">21.8s</text>
<text class="lbl" x="182" y="1178.0" text-anchor="end">b4d79b6d · email</text>
<path class="s1" d="M190.0,1167.0 H433.2 Q437.2,1167.0 437.2,1171.0 V1177.0 Q437.2,1181.0 433.2,1181.0 H190.0 Z"><title>b4d79b6d · email: 21.5s — 1757 prompt / 136 completion tok</title></path>
<text class="val" x="443.2" y="1178.0">21.5s</text>
<text class="lbl" x="182" y="1202.0" text-anchor="end">dcd45666 · email</text>
<path class="s1" d="M190.0,1191.0 H433.2 Q437.2,1191.0 437.2,1195.0 V1201.0 Q437.2,1205.0 433.2,1205.0 H190.0 Z"><title>dcd45666 · email: 21.5s — 1916 prompt / 136 completion tok</title></path>
<text class="val" x="443.2" y="1202.0">21.5s</text>
<text class="lbl" x="182" y="1226.0" text-anchor="end">6ecfecc3 · email</text>
<path class="s1" d="M190.0,1215.0 H432.1 Q436.1,1215.0 436.1,1219.0 V1225.0 Q436.1,1229.0 432.1,1229.0 H190.0 Z"><title>6ecfecc3 · email: 21.4s — 1729 prompt / 137 completion tok</title></path>
<text class="val" x="442.1" y="1226.0">21.4s</text>
<text class="lbl" x="182" y="1250.0" text-anchor="end">b727a0d4 · email</text>
<path class="s1" d="M190.0,1239.0 H429.8 Q433.8,1239.0 433.8,1243.0 V1249.0 Q433.8,1253.0 429.8,1253.0 H190.0 Z"><title>b727a0d4 · email: 21.2s — 1779 prompt / 134 completion tok</title></path>
<text class="val" x="439.8" y="1250.0">21.2s</text>
<text class="lbl" x="182" y="1274.0" text-anchor="end">8f2c06e0 · email</text>
<path class="s1" d="M190.0,1263.0 H429.8 Q433.8,1263.0 433.8,1267.0 V1273.0 Q433.8,1277.0 429.8,1277.0 H190.0 Z"><title>8f2c06e0 · email: 21.2s — 1936 prompt / 134 completion tok</title></path>
<text class="val" x="439.8" y="1274.0">21.2s</text>
<text class="lbl" x="182" y="1298.0" text-anchor="end">1d63024f · letter</text>
<path class="s1" d="M190.0,1287.0 H420.6 Q424.6,1287.0 424.6,1291.0 V1297.0 Q424.6,1301.0 420.6,1301.0 H190.0 Z"><title>1d63024f · letter: 20.4s — 1752 prompt / 143 completion tok</title></path>
<text class="val" x="430.6" y="1298.0">20.4s</text>
<text class="lbl" x="182" y="1322.0" text-anchor="end">4e7b4547 · email</text>
<path class="s1" d="M190.0,1311.0 H420.6 Q424.6,1311.0 424.6,1315.0 V1321.0 Q424.6,1325.0 420.6,1325.0 H190.0 Z"><title>4e7b4547 · email: 20.4s — 1773 prompt / 140 completion tok</title></path>
<text class="val" x="430.6" y="1322.0">20.4s</text>
<text class="lbl" x="182" y="1346.0" text-anchor="end">b2abaa39 · email</text>
<path class="s1" d="M190.0,1335.0 H414.8 Q418.8,1335.0 418.8,1339.0 V1345.0 Q418.8,1349.0 414.8,1349.0 H190.0 Z"><title>b2abaa39 · email: 19.9s — 1703 prompt / 137 completion tok</title></path>
<text class="val" x="424.8" y="1346.0">19.9s</text>
<text class="lbl" x="182" y="1370.0" text-anchor="end">5b81cc4b · email</text>
<path class="s1" d="M190.0,1359.0 H413.7 Q417.7,1359.0 417.7,1363.0 V1369.0 Q417.7,1373.0 413.7,1373.0 H190.0 Z"><title>5b81cc4b · email: 19.8s — 1784 prompt / 141 completion tok</title></path>
<text class="val" x="423.7" y="1370.0">19.8s</text>
<text class="lbl" x="182" y="1394.0" text-anchor="end">302a6821 · email</text>
<path class="s1" d="M190.0,1383.0 H409.1 Q413.1,1383.0 413.1,1387.0 V1393.0 Q413.1,1397.0 409.1,1397.0 H190.0 Z"><title>302a6821 · email: 19.4s — 1747 prompt / 127 completion tok</title></path>
<text class="val" x="419.1" y="1394.0">19.4s</text>
<text class="lbl" x="182" y="1418.0" text-anchor="end">8dba65f3 · letter</text>
<path class="s1" d="M190.0,1407.0 H401.0 Q405.0,1407.0 405.0,1411.0 V1417.0 Q405.0,1421.0 401.0,1421.0 H190.0 Z"><title>8dba65f3 · letter: 18.7s — 1813 prompt / 113 completion tok</title></path>
<text class="val" x="411.0" y="1418.0">18.7s</text>
<text class="lbl" x="182" y="1442.0" text-anchor="end">c826ad07 · email</text>
<path class="s1" d="M190.0,1431.0 H398.8 Q402.8,1431.0 402.8,1435.0 V1441.0 Q402.8,1445.0 398.8,1445.0 H190.0 Z"><title>c826ad07 · email: 18.5s — 1685 prompt / 115 completion tok</title></path>
<text class="val" x="408.8" y="1442.0">18.5s</text>
<text class="lbl" x="182" y="1466.0" text-anchor="end">e2435b55 · email</text>
<path class="s1" d="M190.0,1455.0 H395.3 Q399.3,1455.0 399.3,1459.0 V1465.0 Q399.3,1469.0 395.3,1469.0 H190.0 Z"><title>e2435b55 · email: 18.2s — 1847 prompt / 127 completion tok</title></path>
<text class="val" x="405.3" y="1466.0">18.2s</text>
<text class="lbl" x="182" y="1490.0" text-anchor="end">9a4bf994 · email</text>
<path class="s1" d="M190.0,1479.0 H394.1 Q398.1,1479.0 398.1,1483.0 V1489.0 Q398.1,1493.0 394.1,1493.0 H190.0 Z"><title>9a4bf994 · email: 18.1s — 1855 prompt / 114 completion tok</title></path>
<text class="val" x="404.1" y="1490.0">18.1s</text>
<text class="lbl" x="182" y="1514.0" text-anchor="end">ed14e557 · email</text>
<path class="s1" d="M190.0,1503.0 H389.6 Q393.6,1503.0 393.6,1507.0 V1513.0 Q393.6,1517.0 389.6,1517.0 H190.0 Z"><title>ed14e557 · email: 17.7s — 1674 prompt / 107 completion tok</title></path>
<text class="val" x="399.6" y="1514.0">17.7s</text>
<text class="lbl" x="182" y="1538.0" text-anchor="end">ed293da4 · memo</text>
<path class="s1" d="M190.0,1527.0 H388.4 Q392.4,1527.0 392.4,1531.0 V1537.0 Q392.4,1541.0 388.4,1541.0 H190.0 Z"><title>ed293da4 · memo: 17.6s — 1698 prompt / 106 completion tok</title></path>
<text class="val" x="398.4" y="1538.0">17.6s</text>
<text class="lbl" x="182" y="1562.0" text-anchor="end">a9c1351e · press_release</text>
<path class="s1" d="M190.0,1551.0 H386.1 Q390.1,1551.0 390.1,1555.0 V1561.0 Q390.1,1565.0 386.1,1565.0 H190.0 Z"><title>a9c1351e · press_release: 17.4s — 1707 prompt / 106 completion tok</title></path>
<text class="val" x="396.1" y="1562.0">17.4s</text>
<text class="lbl" x="182" y="1586.0" text-anchor="end">8ac68936 · email</text>
<path class="s1" d="M190.0,1575.0 H381.5 Q385.5,1575.0 385.5,1579.0 V1585.0 Q385.5,1589.0 381.5,1589.0 H190.0 Z"><title>8ac68936 · email: 17.0s — 1671 prompt / 92 completion tok</title></path>
<text class="val" x="391.5" y="1586.0">17.0s</text>
<text class="lbl" x="182" y="1610.0" text-anchor="end">b1514bec · notice</text>
<path class="s1" d="M190.0,1599.0 H362.0 Q366.0,1599.0 366.0,1603.0 V1609.0 Q366.0,1613.0 362.0,1613.0 H190.0 Z"><title>b1514bec · notice: 15.3s — 1913 prompt / 223 completion tok</title></path>
<text class="val" x="372.0" y="1610.0">15.3s</text>
<text class="lbl" x="182" y="1634.0" text-anchor="end">0c70b02b · memo</text>
<path class="s1" d="M190.0,1623.0 H362.0 Q366.0,1623.0 366.0,1627.0 V1633.0 Q366.0,1637.0 362.0,1637.0 H190.0 Z"><title>0c70b02b · memo: 15.3s — 2206 prompt / 225 completion tok</title></path>
<text class="val" x="372.0" y="1634.0">15.3s</text>
<text class="lbl" x="182" y="1658.0" text-anchor="end">c4d49aaf · email</text>
<path class="s1" d="M190.0,1647.0 H349.3 Q353.3,1647.0 353.3,1651.0 V1657.0 Q353.3,1661.0 349.3,1661.0 H190.0 Z"><title>c4d49aaf · email: 14.2s — 1940 prompt / 180 completion tok</title></path>
<text class="val" x="359.3" y="1658.0">14.2s</text>
<text class="lbl" x="182" y="1682.0" text-anchor="end">c01ca6f0 · email</text>
<path class="s1" d="M190.0,1671.0 H339.0 Q343.0,1671.0 343.0,1675.0 V1681.0 Q343.0,1685.0 339.0,1685.0 H190.0 Z"><title>c01ca6f0 · email: 13.3s — 1866 prompt / 202 completion tok</title></path>
<text class="val" x="349.0" y="1682.0">13.3s</text>
<text class="lbl" x="182" y="1706.0" text-anchor="end">87fe53d2 · email</text>
<path class="s1" d="M190.0,1695.0 H329.8 Q333.8,1695.0 333.8,1699.0 V1705.0 Q333.8,1709.0 329.8,1709.0 H190.0 Z"><title>87fe53d2 · email: 12.5s — 1812 prompt / 157 completion tok</title></path>
<text class="val" x="339.8" y="1706.0">12.5s</text>
<text class="lbl" x="182" y="1730.0" text-anchor="end">269c1911 · memo</text>
<path class="s1" d="M190.0,1719.0 H329.8 Q333.8,1719.0 333.8,1723.0 V1729.0 Q333.8,1733.0 329.8,1733.0 H190.0 Z"><title>269c1911 · memo: 12.5s — 2830 prompt / 275 completion tok</title></path>
<text class="val" x="339.8" y="1730.0">12.5s</text>
<text class="lbl" x="182" y="1754.0" text-anchor="end">02fe39b9 · email</text>
<path class="s1" d="M190.0,1743.0 H328.6 Q332.6,1743.0 332.6,1747.0 V1753.0 Q332.6,1757.0 328.6,1757.0 H190.0 Z"><title>02fe39b9 · email: 12.4s — 1889 prompt / 166 completion tok</title></path>
<text class="val" x="338.6" y="1754.0">12.4s</text>
<text class="lbl" x="182" y="1778.0" text-anchor="end">53cc7973 · notice</text>
<path class="s1" d="M190.0,1767.0 H327.4 Q331.4,1767.0 331.4,1771.0 V1777.0 Q331.4,1781.0 327.4,1781.0 H190.0 Z"><title>53cc7973 · notice: 12.3s — 6883 prompt / 175 completion tok</title></path>
<text class="val" x="337.4" y="1778.0">12.3s</text>
<text class="lbl" x="182" y="1802.0" text-anchor="end">621a56be · email</text>
<path class="s1" d="M190.0,1791.0 H326.3 Q330.3,1791.0 330.3,1795.0 V1801.0 Q330.3,1805.0 326.3,1805.0 H190.0 Z"><title>621a56be · email: 12.2s — 2043 prompt / 137 completion tok</title></path>
<text class="val" x="336.3" y="1802.0">12.2s</text>
<text class="lbl" x="182" y="1826.0" text-anchor="end">e32f0d3b · notice</text>
<path class="s1" d="M190.0,1815.0 H324.0 Q328.0,1815.0 328.0,1819.0 V1825.0 Q328.0,1829.0 324.0,1829.0 H190.0 Z"><title>e32f0d3b · notice: 12.0s — 1976 prompt / 152 completion tok</title></path>
<text class="val" x="334.0" y="1826.0">12.0s</text>
<text class="lbl" x="182" y="1850.0" text-anchor="end">abb3a19f · email</text>
<path class="s1" d="M190.0,1839.0 H324.0 Q328.0,1839.0 328.0,1843.0 V1849.0 Q328.0,1853.0 324.0,1853.0 H190.0 Z"><title>abb3a19f · email: 12.0s — 1896 prompt / 171 completion tok</title></path>
<text class="val" x="334.0" y="1850.0">12.0s</text>
<text class="lbl" x="182" y="1874.0" text-anchor="end">08d418aa · email</text>
<path class="s1" d="M190.0,1863.0 H321.7 Q325.7,1863.0 325.7,1867.0 V1873.0 Q325.7,1877.0 321.7,1877.0 H190.0 Z"><title>08d418aa · email: 11.8s — 2022 prompt / 231 completion tok</title></path>
<text class="val" x="331.7" y="1874.0">11.8s</text>
<text class="lbl" x="182" y="1898.0" text-anchor="end">5df6ba6f · demand</text>
<path class="s1" d="M190.0,1887.0 H318.2 Q322.2,1887.0 322.2,1891.0 V1897.0 Q322.2,1901.0 318.2,1901.0 H190.0 Z"><title>5df6ba6f · demand: 11.5s — 4103 prompt / 142 completion tok</title></path>
<text class="val" x="328.2" y="1898.0">11.5s</text>
<text class="lbl" x="182" y="1922.0" text-anchor="end">4cd91de9 · letter</text>
<path class="s1" d="M190.0,1911.0 H314.8 Q318.8,1911.0 318.8,1915.0 V1921.0 Q318.8,1925.0 314.8,1925.0 H190.0 Z"><title>4cd91de9 · letter: 11.2s — 2516 prompt / 198 completion tok</title></path>
<text class="val" x="324.8" y="1922.0">11.2s</text>
<text class="lbl" x="182" y="1946.0" text-anchor="end">6d7e6348 · memo</text>
<path class="s1" d="M190.0,1935.0 H313.6 Q317.6,1935.0 317.6,1939.0 V1945.0 Q317.6,1949.0 313.6,1949.0 H190.0 Z"><title>6d7e6348 · memo: 11.1s — 1806 prompt / 129 completion tok</title></path>
<text class="val" x="323.6" y="1946.0">11.1s</text>
<text class="lbl" x="182" y="1970.0" text-anchor="end">97cdfbb2 · demand</text>
<path class="s1" d="M190.0,1959.0 H313.6 Q317.6,1959.0 317.6,1963.0 V1969.0 Q317.6,1973.0 313.6,1973.0 H190.0 Z"><title>97cdfbb2 · demand: 11.1s — 2322 prompt / 192 completion tok</title></path>
<text class="val" x="323.6" y="1970.0">11.1s</text>
<text class="lbl" x="182" y="1994.0" text-anchor="end">8f455d50 · email</text>
<path class="s1" d="M190.0,1983.0 H309.0 Q313.0,1983.0 313.0,1987.0 V1993.0 Q313.0,1997.0 309.0,1997.0 H190.0 Z"><title>8f455d50 · email: 10.7s — 2788 prompt / 133 completion tok</title></path>
<text class="val" x="319.0" y="1994.0">10.7s</text>
<text class="lbl" x="182" y="2018.0" text-anchor="end">461dd523 · notice</text>
<path class="s1" d="M190.0,2007.0 H307.9 Q311.9,2007.0 311.9,2011.0 V2017.0 Q311.9,2021.0 307.9,2021.0 H190.0 Z"><title>461dd523 · notice: 10.6s — 2058 prompt / 194 completion tok</title></path>
<text class="val" x="317.9" y="2018.0">10.6s</text>
<text class="lbl" x="182" y="2042.0" text-anchor="end">a54b1469 · press_release</text>
<path class="s1" d="M190.0,2031.0 H307.9 Q311.9,2031.0 311.9,2035.0 V2041.0 Q311.9,2045.0 307.9,2045.0 H190.0 Z"><title>a54b1469 · press_release: 10.6s — 2665 prompt / 190 completion tok</title></path>
<text class="val" x="317.9" y="2042.0">10.6s</text>
<text class="lbl" x="182" y="2066.0" text-anchor="end">272be5fd · email</text>
<path class="s1" d="M190.0,2055.0 H306.8 Q310.8,2055.0 310.8,2059.0 V2065.0 Q310.8,2069.0 306.8,2069.0 H190.0 Z"><title>272be5fd · email: 10.5s — 2384 prompt / 198 completion tok</title></path>
<text class="val" x="316.8" y="2066.0">10.5s</text>
<text class="lbl" x="182" y="2090.0" text-anchor="end">a4e67d76 · email</text>
<path class="s1" d="M190.0,2079.0 H306.8 Q310.8,2079.0 310.8,2083.0 V2089.0 Q310.8,2093.0 306.8,2093.0 H190.0 Z"><title>a4e67d76 · email: 10.5s — 2681 prompt / 184 completion tok</title></path>
<text class="val" x="316.8" y="2090.0">10.5s</text>
<text class="lbl" x="182" y="2114.0" text-anchor="end">5b387935 · press_release</text>
<path class="s1" d="M190.0,2103.0 H298.7 Q302.7,2103.0 302.7,2107.0 V2113.0 Q302.7,2117.0 298.7,2117.0 H190.0 Z"><title>5b387935 · press_release: 9.8s — 2588 prompt / 217 completion tok</title></path>
<text class="val" x="308.7" y="2114.0">9.8s</text>
<text class="lbl" x="182" y="2138.0" text-anchor="end">19465909 · notice</text>
<path class="s1" d="M190.0,2127.0 H297.6 Q301.6,2127.0 301.6,2131.0 V2137.0 Q301.6,2141.0 297.6,2141.0 H190.0 Z"><title>19465909 · notice: 9.7s — 1840 prompt / 181 completion tok</title></path>
<text class="val" x="307.6" y="2138.0">9.7s</text>
<text class="lbl" x="182" y="2162.0" text-anchor="end">c5e394a4 · demand</text>
<path class="s1" d="M190.0,2151.0 H295.2 Q299.2,2151.0 299.2,2155.0 V2161.0 Q299.2,2165.0 295.2,2165.0 H190.0 Z"><title>c5e394a4 · demand: 9.5s — 1732 prompt / 156 completion tok</title></path>
<text class="val" x="305.2" y="2162.0">9.5s</text>
<text class="lbl" x="182" y="2186.0" text-anchor="end">0e406461 · email</text>
<path class="s1" d="M190.0,2175.0 H295.2 Q299.2,2175.0 299.2,2179.0 V2185.0 Q299.2,2189.0 295.2,2189.0 H190.0 Z"><title>0e406461 · email: 9.5s — 1843 prompt / 175 completion tok</title></path>
<text class="val" x="305.2" y="2186.0">9.5s</text>
<text class="lbl" x="182" y="2210.0" text-anchor="end">bb91d578 · demand</text>
<path class="s1" d="M190.0,2199.0 H291.8 Q295.8,2199.0 295.8,2203.0 V2209.0 Q295.8,2213.0 291.8,2213.0 H190.0 Z"><title>bb91d578 · demand: 9.2s — 2724 prompt / 144 completion tok</title></path>
<text class="val" x="301.8" y="2210.0">9.2s</text>
<text class="lbl" x="182" y="2234.0" text-anchor="end">52426b57 · letter</text>
<path class="s1" d="M190.0,2223.0 H287.2 Q291.2,2223.0 291.2,2227.0 V2233.0 Q291.2,2237.0 287.2,2237.0 H190.0 Z"><title>52426b57 · letter: 8.8s — 1813 prompt / 177 completion tok</title></path>
<text class="val" x="297.2" y="2234.0">8.8s</text>
<text class="lbl" x="182" y="2258.0" text-anchor="end">61f7d7f5 · email</text>
<path class="s1" d="M190.0,2247.0 H275.7 Q279.7,2247.0 279.7,2251.0 V2257.0 Q279.7,2261.0 275.7,2261.0 H190.0 Z"><title>61f7d7f5 · email: 7.8s — 3967 prompt / 155 completion tok</title></path>
<text class="val" x="285.7" y="2258.0">7.8s</text>
<text class="lbl" x="182" y="2282.0" text-anchor="end">b08f097e · memo</text>
<path class="s1" d="M190.0,2271.0 H273.4 Q277.4,2271.0 277.4,2275.0 V2281.0 Q277.4,2285.0 273.4,2285.0 H190.0 Z"><title>b08f097e · memo: 7.6s — 1724 prompt / 133 completion tok</title></path>
<text class="val" x="283.4" y="2282.0">7.6s</text>
<text class="lbl" x="182" y="2306.0" text-anchor="end">c673f355 · letter</text>
<path class="s1" d="M190.0,2295.0 H271.1 Q275.1,2295.0 275.1,2299.0 V2305.0 Q275.1,2309.0 271.1,2309.0 H190.0 Z"><title>c673f355 · letter: 7.4s — 1863 prompt / 132 completion tok</title></path>
<text class="val" x="281.1" y="2306.0">7.4s</text>
<text class="lbl" x="182" y="2330.0" text-anchor="end">c7d94cea · email</text>
<path class="s1" d="M190.0,2319.0 H267.6 Q271.6,2319.0 271.6,2323.0 V2329.0 Q271.6,2333.0 267.6,2333.0 H190.0 Z"><title>c7d94cea · email: 7.1s — 1730 prompt / 141 completion tok</title></path>
<text class="val" x="277.6" y="2330.0">7.1s</text>
<text class="lbl" x="182" y="2354.0" text-anchor="end">3cb1d34e · email</text>
<path class="s1" d="M190.0,2343.0 H266.5 Q270.5,2343.0 270.5,2347.0 V2353.0 Q270.5,2357.0 266.5,2357.0 H190.0 Z"><title>3cb1d34e · email: 7.0s — 1668 prompt / 84 completion tok</title></path>
<text class="val" x="276.5" y="2354.0">7.0s</text>
<text class="lbl" x="182" y="2378.0" text-anchor="end">4ff237d5 · email</text>
<path class="s1" d="M190.0,2367.0 H265.4 Q269.4,2367.0 269.4,2371.0 V2377.0 Q269.4,2381.0 265.4,2381.0 H190.0 Z"><title>4ff237d5 · email: 6.9s — 2179 prompt / 154 completion tok</title></path>
<text class="val" x="275.4" y="2378.0">6.9s</text>
<text class="lbl" x="182" y="2402.0" text-anchor="end">58fc4a6e · email</text>
<path class="s1" d="M190.0,2391.0 H265.4 Q269.4,2391.0 269.4,2395.0 V2401.0 Q269.4,2405.0 265.4,2405.0 H190.0 Z"><title>58fc4a6e · email: 6.9s — 1845 prompt / 129 completion tok</title></path>
<text class="val" x="275.4" y="2402.0">6.9s</text>
<text class="lbl" x="182" y="2426.0" text-anchor="end">205d564b · email</text>
<path class="s1" d="M190.0,2415.0 H260.8 Q264.8,2415.0 264.8,2419.0 V2425.0 Q264.8,2429.0 260.8,2429.0 H190.0 Z"><title>205d564b · email: 6.5s — 1894 prompt / 169 completion tok</title></path>
<text class="val" x="270.8" y="2426.0">6.5s</text>
<text class="lbl" x="182" y="2450.0" text-anchor="end">efc6cc7b · email</text>
<path class="s1" d="M190.0,2439.0 H258.4 Q262.4,2439.0 262.4,2443.0 V2449.0 Q262.4,2453.0 258.4,2453.0 H190.0 Z"><title>efc6cc7b · email: 6.3s — 1778 prompt / 147 completion tok</title></path>
<text class="val" x="268.4" y="2450.0">6.3s</text>
</svg>